<?xml version="1.0" encoding="UTF-8" standalone="no"?>
<!-- Created with Inkscape (http://www.inkscape.org/) -->

<svg
   xmlns:dc="http://purl.org/dc/elements/1.1/"
   xmlns:cc="http://creativecommons.org/ns#"
   xmlns:rdf="http://www.w3.org/1999/02/22-rdf-syntax-ns#"
   xmlns:svg="http://www.w3.org/2000/svg"
   xmlns="http://www.w3.org/2000/svg"
   version="1.1"
   width="391.22525"
   height="244.87086"
   id="svg2985"
   xml:space="preserve"><metadata
     id="metadata2991"><rdf:RDF><cc:Work
         rdf:about=""><dc:format>image/svg+xml</dc:format><dc:type
           rdf:resource="http://purl.org/dc/dcmitype/StillImage" /><dc:title></dc:title></cc:Work></rdf:RDF></metadata><defs
     id="defs2989"><clipPath
       id="clipPath3001"><path
         d="m 0,504 612,0 0,288 -612,0 0,-288 z"
         id="path3003" /></clipPath><clipPath
       id="clipPath3015"><path
         d="M 0,0 612,0 612,281 0,281 0,0 z"
         id="path3017" /></clipPath><clipPath
       id="clipPath3043"><path
         d="M 0,0 612,0 612,792 0,792 0,0 z"
         id="path3045" /></clipPath><clipPath
       id="clipPath3087"><path
         d="M 0,0 612,0 612,792 0,792 0,0 z"
         id="path3089" /></clipPath><clipPath
       id="clipPath3175"><path
         d="m 328.52,295.325 120.643,0 0,85.738 -120.643,0 0,-85.738 z"
         id="path3177" /></clipPath></defs><g
     transform="translate(-317.37472,-320.74526)"
     id="layer1"
     style="display:none"><g
       transform="matrix(3.3155729,0,0,-3.3155729,-785.63235,1589.1894)"
       id="g3792"><g
         transform="translate(329.1581,305.8217)"
         id="g3179"><path
           d="m 0,0 0.824,0 c 0.559,-0.006 0.758,0.02 0.944,0.153 0.219,0.153 0.306,0.426 0.306,0.692 0,0.172 -0.04,0.352 -0.14,0.498 C 1.688,1.688 1.124,1.688 0.738,1.688 L 0,1.688 0,0 z m 0,-0.564 0,-1.629 c 0,-0.086 -0.026,-0.299 -0.312,-0.299 -0.299,0 -0.326,0.199 -0.326,0.299 l 0,4.127 c 0,0.213 0.08,0.313 0.312,0.313 l 1.263,0 C 1.263,2.247 1.608,2.24 1.908,2.127 2.433,1.928 2.705,1.443 2.705,0.845 2.705,0.698 2.692,0.572 2.665,0.452 2.606,0.18 2.486,-0.053 2.267,-0.239 1.894,-0.551 1.496,-0.564 1.064,-0.564 l -1.064,0 z"
           id="path3181"
           style="fill:#013021;fill-opacity:1;fill-rule:nonzero;stroke:none" /></g><g
         transform="translate(335.0282,303.6217)"
         id="g3183"><path
           d="m 0,0 c -0.007,-0.093 -0.02,-0.193 -0.146,-0.259 -0.087,-0.04 -0.213,-0.04 -0.306,0 -0.14,0.073 -0.14,0.18 -0.14,0.445 -0.286,-0.379 -0.571,-0.505 -1.056,-0.505 -0.16,0 -0.585,0.013 -0.884,0.339 -0.286,0.319 -0.286,0.745 -0.286,1.057 l 0,1.847 c 0,0.087 0.026,0.306 0.306,0.306 0.279,0 0.312,-0.212 0.312,-0.299 l 0,-1.655 c 0,-0.445 0.02,-0.631 0.106,-0.791 0.153,-0.279 0.466,-0.279 0.545,-0.279 0.432,0 0.798,0.259 0.898,0.705 0.039,0.166 0.033,0.312 0.033,0.558 l 0,1.455 c 0,0.087 0.026,0.306 0.306,0.306 C -0.027,3.23 0,3.011 0,2.924 L 0,0 z"
           id="path3185"
           style="fill:#013021;fill-opacity:1;fill-rule:nonzero;stroke:none" /></g><g
         transform="translate(335.8597,306.2939)"
         id="g3187"><path
           d="m 0,0 -0.352,0 c -0.073,0 -0.253,0.026 -0.253,0.259 0,0.239 0.18,0.26 0.253,0.26 l 0.358,0 0,0.777 c 0,0.086 0.027,0.286 0.3,0.286 0.286,0 0.306,-0.193 0.306,-0.286 l 0,-0.777 0.411,0 c 0.08,0 0.253,-0.021 0.253,-0.26 C 1.276,0.026 1.096,0 1.023,0 l -0.411,0 0,-1.688 c 0,-0.399 0.006,-0.446 0.026,-0.525 0.047,-0.193 0.173,-0.226 0.352,-0.24 0.16,-0.006 0.326,-0.019 0.326,-0.252 0,-0.233 -0.213,-0.259 -0.392,-0.259 C 0,-2.964 0,-2.466 0,-1.948 L 0,0 z"
           id="path3189"
           style="fill:#013021;fill-opacity:1;fill-rule:nonzero;stroke:none" /></g><g
         transform="translate(338.0669,306.2939)"
         id="g3191"><path
           d="m 0,0 -0.352,0 c -0.073,0 -0.253,0.026 -0.253,0.259 0,0.239 0.18,0.26 0.253,0.26 l 0.358,0 0,0.777 c 0,0.086 0.027,0.286 0.3,0.286 0.286,0 0.306,-0.193 0.306,-0.286 l 0,-0.777 0.411,0 c 0.08,0 0.253,-0.021 0.253,-0.26 C 1.276,0.026 1.096,0 1.023,0 l -0.411,0 0,-1.688 c 0,-0.399 0.006,-0.446 0.026,-0.525 0.047,-0.193 0.173,-0.226 0.352,-0.24 0.16,-0.006 0.326,-0.019 0.326,-0.252 0,-0.233 -0.213,-0.259 -0.392,-0.259 C 0,-2.964 0,-2.466 0,-1.948 L 0,0 z"
           id="path3193"
           style="fill:#013021;fill-opacity:1;fill-rule:nonzero;stroke:none" /></g><g
         transform="translate(340.5664,303.6287)"
         id="g3195"><path
           d="m 0,0 c 0,-0.053 -0.013,-0.106 -0.033,-0.146 -0.027,-0.06 -0.106,-0.153 -0.266,-0.153 -0.18,0 -0.306,0.113 -0.306,0.299 l 0,2.931 c 0,0.08 0.027,0.292 0.299,0.292 C -0.026,3.223 0,3.011 0,2.931 L 0,0 z m -0.306,4.473 c 0.193,0 0.373,-0.133 0.373,-0.379 0,-0.226 -0.147,-0.366 -0.373,-0.366 -0.239,0 -0.372,0.16 -0.372,0.366 0,0.239 0.166,0.379 0.372,0.379"
           id="path3197"
           style="fill:#013021;fill-opacity:1;fill-rule:nonzero;stroke:none" /></g><g
         transform="translate(341.2178,306.5601)"
         id="g3199"><path
           d="m 0,0 c 0,0.093 0.02,0.193 0.146,0.258 0.087,0.041 0.226,0.041 0.306,0 0.146,-0.072 0.146,-0.172 0.146,-0.438 0.273,0.366 0.618,0.499 1.07,0.499 0.359,0 0.698,-0.107 0.917,-0.379 0.226,-0.286 0.233,-0.638 0.233,-0.991 l 0,-1.88 c 0,-0.087 -0.026,-0.299 -0.306,-0.299 -0.053,0 -0.106,0.013 -0.159,0.032 -0.126,0.067 -0.146,0.174 -0.146,0.267 l 0,1.568 c 0,0.352 -0.013,0.432 -0.013,0.492 0,0.18 -0.04,0.665 -0.659,0.665 -0.604,0 -0.824,-0.452 -0.89,-0.758 C 0.605,-1.137 0.612,-1.31 0.612,-1.489 l 0,-1.442 c 0,-0.087 -0.027,-0.299 -0.306,-0.299 -0.053,0 -0.107,0.013 -0.16,0.032 C 0.02,-3.131 0,-3.031 0,-2.931 L 0,0 z"
           id="path3201"
           style="fill:#013021;fill-opacity:1;fill-rule:nonzero;stroke:none" /></g><g
         transform="translate(345.9444,306.3537)"
         id="g3203"><path
           d="m 0,0 c -0.219,0 -0.512,-0.066 -0.718,-0.359 -0.159,-0.232 -0.213,-0.545 -0.213,-0.817 0,-0.3 0.054,-0.625 0.213,-0.838 0.133,-0.186 0.366,-0.326 0.665,-0.326 0.305,0 0.585,0.153 0.731,0.366 0.18,0.259 0.193,0.691 0.193,0.844 0,0.173 0,1.13 -0.871,1.13 m 1.429,-2.532 c 0,-0.725 -0.086,-1.077 -0.352,-1.323 -0.233,-0.213 -0.632,-0.326 -1.09,-0.326 -0.386,0 -0.738,0.08 -0.971,0.253 -0.232,0.166 -0.392,0.452 -0.392,0.631 0,0.207 0.18,0.293 0.319,0.293 0.199,0 0.266,-0.14 0.319,-0.253 0.06,-0.12 0.087,-0.173 0.133,-0.226 0.146,-0.166 0.479,-0.186 0.632,-0.186 0.791,0 0.817,0.505 0.831,0.964 l 0.006,0.306 c -0.153,-0.18 -0.399,-0.465 -1.003,-0.465 -0.997,0 -1.416,0.764 -1.416,1.641 0,0.233 0.026,0.459 0.086,0.685 0.193,0.658 0.678,1.063 1.403,1.063 0.245,0 0.418,-0.046 0.544,-0.099 0.253,-0.113 0.34,-0.24 0.413,-0.36 0.006,0.22 0.006,0.253 0.033,0.306 0.027,0.047 0.093,0.12 0.233,0.12 0.252,0 0.272,-0.179 0.272,-0.252 l 0,-2.772 z"
           id="path3205"
           style="fill:#013021;fill-opacity:1;fill-rule:nonzero;stroke:none" /></g><g
         transform="translate(353.2037,305.4894)"
         id="g3207"><path
           d="m 0,0 -2.426,0 0,-1.854 c 0,-0.087 -0.026,-0.306 -0.312,-0.306 -0.053,0 -0.107,0.013 -0.153,0.04 -0.133,0.066 -0.153,0.166 -0.153,0.266 l 0,4.167 c 0,0.087 0.027,0.306 0.312,0.306 0.054,0 0.107,-0.014 0.16,-0.04 0.126,-0.066 0.146,-0.166 0.146,-0.266 l 0,-1.761 2.426,0 0,1.761 c 0.007,0.053 0.014,0.107 0.034,0.153 0.019,0.04 0.099,0.153 0.278,0.153 0.286,0 0.313,-0.219 0.313,-0.306 l 0,-4.167 C 0.625,-1.907 0.612,-1.961 0.592,-2.007 0.565,-2.067 0.479,-2.16 0.312,-2.16 0.034,-2.16 0,-1.941 0,-1.854 L 0,0 z"
           id="path3209"
           style="fill:#013021;fill-opacity:1;fill-rule:nonzero;stroke:none" /></g><g
         transform="translate(356.774,305.4231)"
         id="g3211"><path
           d="m 0,0 c -0.026,0.439 -0.266,0.924 -0.897,0.924 -0.14,0 -0.412,-0.013 -0.645,-0.22 C -1.808,0.472 -1.868,0.153 -1.901,0 L 0,0 z m -1.908,-0.498 c 0.014,-0.299 0.08,-0.566 0.26,-0.785 0.226,-0.279 0.498,-0.325 0.764,-0.325 0.525,0 0.711,0.272 0.831,0.458 0.106,0.18 0.14,0.246 0.286,0.246 0.146,0 0.345,-0.086 0.345,-0.279 0,-0.027 0,-0.047 -0.006,-0.066 C 0.545,-1.376 0.432,-1.522 0.359,-1.602 -0.099,-2.12 -0.698,-2.12 -0.884,-2.12 c -0.432,0 -0.871,0.086 -1.21,0.465 -0.298,0.339 -0.438,0.817 -0.438,1.296 0,0.838 0.452,1.815 1.628,1.815 0.146,0 0.293,-0.013 0.432,-0.047 0.299,-0.073 0.559,-0.219 0.764,-0.498 0.22,-0.306 0.333,-0.738 0.333,-1.11 0,-0.279 -0.213,-0.299 -0.299,-0.299 l -2.234,0 z"
           id="path3213"
           style="fill:#013021;fill-opacity:1;fill-rule:nonzero;stroke:none" /></g><g
         transform="translate(359.188,304.9447)"
         id="g3215"><path
           d="m 0,0 c -0.113,-0.02 -0.246,-0.053 -0.339,-0.086 -0.1,-0.034 -0.399,-0.133 -0.399,-0.505 0,-0.366 0.286,-0.552 0.618,-0.552 0.379,0 0.632,0.219 0.731,0.352 0.173,0.239 0.18,0.552 0.186,0.997 C 0.671,0.153 0.625,0.139 0.346,0.08 L 0,0 z M 1.362,-1.349 C 1.356,-1.422 1.342,-1.615 1.096,-1.615 0.983,-1.608 0.884,-1.568 0.844,-1.469 0.824,-1.416 0.817,-1.389 0.817,-1.15 0.492,-1.568 0.04,-1.642 -0.253,-1.642 c -0.691,0 -1.116,0.426 -1.116,1.057 0,0.791 0.651,0.917 1.01,0.99 l 0.565,0.12 c 0.226,0.046 0.346,0.073 0.405,0.093 0.14,0.04 0.186,0.093 0.186,0.259 0,0.565 -0.571,0.565 -0.691,0.565 -0.578,0 -0.678,-0.286 -0.737,-0.465 -0.02,-0.093 -0.054,-0.213 -0.28,-0.213 -0.246,0 -0.312,0.14 -0.312,0.259 0,0.133 0.086,0.3 0.139,0.386 0.266,0.406 0.732,0.525 1.19,0.525 0.386,0 0.784,-0.073 1.03,-0.359 C 1.362,1.309 1.362,0.97 1.362,0.645 l 0,-1.994 z"
           id="path3217"
           style="fill:#013021;fill-opacity:1;fill-rule:nonzero;stroke:none" /></g><g
         transform="translate(361.6807,303.6287)"
         id="g3219"><path
           d="m 0,0 c 0,-0.08 -0.026,-0.299 -0.306,-0.299 -0.172,0 -0.305,0.1 -0.305,0.299 l 0,4.181 c 0,0.08 0.033,0.292 0.305,0.292 C -0.026,4.473 0,4.261 0,4.181 L 0,0 z"
           id="path3221"
           style="fill:#013021;fill-opacity:1;fill-rule:nonzero;stroke:none" /></g><g
         transform="translate(362.6452,306.2939)"
         id="g3223"><path
           d="m 0,0 -0.352,0 c -0.073,0 -0.253,0.026 -0.253,0.259 0,0.239 0.18,0.26 0.253,0.26 l 0.358,0 0,0.777 c 0,0.086 0.027,0.286 0.3,0.286 0.286,0 0.306,-0.193 0.306,-0.286 l 0,-0.777 0.411,0 c 0.08,0 0.253,-0.021 0.253,-0.26 C 1.276,0.026 1.096,0 1.023,0 l -0.411,0 0,-1.688 c 0,-0.399 0.006,-0.446 0.026,-0.525 0.047,-0.193 0.173,-0.226 0.352,-0.24 0.16,-0.006 0.326,-0.019 0.326,-0.252 0,-0.233 -0.213,-0.259 -0.392,-0.259 C 0,-2.964 0,-2.466 0,-1.948 L 0,0 z"
           id="path3225"
           style="fill:#013021;fill-opacity:1;fill-rule:nonzero;stroke:none" /></g><g
         transform="translate(365.0249,306.42)"
         id="g3227"><path
           d="M 0,0 C 0.239,0.319 0.665,0.459 1.057,0.459 1.688,0.459 1.934,0.133 1.987,0.06 2.2,-0.239 2.2,-0.625 2.2,-0.944 l 0,-1.847 C 2.2,-2.845 2.187,-2.897 2.167,-2.938 2.14,-2.997 2.06,-3.09 1.894,-3.09 c -0.279,0 -0.306,0.212 -0.306,0.299 l 0,1.661 c 0,0.412 -0.013,0.585 -0.093,0.745 -0.153,0.285 -0.458,0.292 -0.565,0.292 -0.285,0 -0.531,-0.12 -0.684,-0.279 -0.24,-0.253 -0.253,-0.539 -0.253,-0.851 l 0,-1.568 c 0,-0.054 -0.013,-0.106 -0.033,-0.147 -0.027,-0.059 -0.106,-0.152 -0.272,-0.152 -0.28,0 -0.306,0.212 -0.306,0.299 l 0,4.167 c 0,0.086 0.026,0.306 0.306,0.306 C -0.033,1.682 0,1.462 0,1.382 L 0,0 z"
           id="path3229"
           style="fill:#013021;fill-opacity:1;fill-rule:nonzero;stroke:none" /></g><g
         transform="translate(368.9135,304.6125)"
         id="g3231"><path
           d="m 0,0 c 0.087,-0.246 0.12,-0.372 0.153,-0.505 0.033,0.139 0.073,0.306 0.14,0.511 0.013,0.06 0.106,0.366 0.126,0.432 L 0.938,2.04 c 0.026,0.08 0.079,0.2 0.272,0.2 0.193,0 0.332,-0.12 0.332,-0.279 0,-0.04 0,-0.067 -0.013,-0.113 L 0.419,-1.316 C 0.2,-1.941 0.047,-2.433 -0.725,-2.433 c -0.332,0 -0.511,0.053 -0.511,0.332 0,0.08 0.02,0.18 0.08,0.213 0.04,0.02 0.08,0.027 0.113,0.027 0.04,0 0.246,-0.033 0.299,-0.033 0.153,0 0.299,0.073 0.399,0.179 0.093,0.107 0.133,0.226 0.219,0.479 l -1.21,3.057 c -0.019,0.053 -0.026,0.086 -0.026,0.133 0,0.173 0.153,0.286 0.345,0.286 0.193,0 0.253,-0.12 0.279,-0.2 L 0,0 z"
           id="path3233"
           style="fill:#013021;fill-opacity:1;fill-rule:nonzero;stroke:none" /></g><g
         transform="translate(373.5544,307.4903)"
         id="g3235"><path
           d="m 0,0 0,-1.429 1.947,0 c 0.074,0 0.266,-0.027 0.266,-0.279 0,-0.246 -0.192,-0.273 -0.266,-0.273 l -1.947,0 0,-1.874 c 0,-0.086 -0.04,-0.299 -0.319,-0.299 -0.06,0 -0.113,0.007 -0.166,0.033 -0.133,0.066 -0.153,0.166 -0.153,0.266 l 0,4.121 c 0,0.199 0.086,0.312 0.312,0.312 l 2.466,0 C 2.227,0.578 2.419,0.551 2.419,0.286 2.419,0.027 2.22,0 2.14,0 L 0,0 z"
           id="path3237"
           style="fill:#013021;fill-opacity:1;fill-rule:nonzero;stroke:none" /></g><g
         transform="translate(378.4404,304.1538)"
         id="g3239"><path
           d="m 0,0 c 0.232,0.299 0.245,0.724 0.245,0.93 0,0.645 -0.212,1.29 -1.023,1.29 -0.18,0 -0.531,-0.027 -0.784,-0.379 -0.173,-0.253 -0.226,-0.605 -0.226,-0.917 0,-0.339 0.06,-0.704 0.246,-0.944 0.133,-0.166 0.392,-0.339 0.771,-0.339 0.299,0 0.591,0.12 0.771,0.359 m 0.438,-0.366 c -0.405,-0.445 -0.903,-0.485 -1.223,-0.485 -0.345,0 -0.823,0.047 -1.203,0.465 -0.412,0.452 -0.425,1.064 -0.425,1.31 0,0.319 0.033,0.877 0.412,1.309 0.412,0.459 0.964,0.499 1.249,0.499 0.978,0 1.629,-0.625 1.629,-1.762 0,-0.299 -0.033,-0.884 -0.439,-1.336"
           id="path3241"
           style="fill:#013021;fill-opacity:1;fill-rule:nonzero;stroke:none" /></g><g
         transform="translate(382.0504,304.1538)"
         id="g3243"><path
           d="m 0,0 c 0.233,0.299 0.246,0.724 0.246,0.93 0,0.645 -0.213,1.29 -1.024,1.29 -0.179,0 -0.531,-0.027 -0.784,-0.379 -0.173,-0.253 -0.226,-0.605 -0.226,-0.917 0,-0.339 0.06,-0.704 0.246,-0.944 0.133,-0.166 0.392,-0.339 0.771,-0.339 0.299,0 0.591,0.12 0.771,0.359 m 0.439,-0.366 c -0.406,-0.445 -0.904,-0.485 -1.223,-0.485 -0.346,0 -0.824,0.047 -1.203,0.465 -0.413,0.452 -0.426,1.064 -0.426,1.31 0,0.319 0.033,0.877 0.413,1.309 0.412,0.459 0.963,0.499 1.249,0.499 0.977,0 1.628,-0.625 1.628,-1.762 0,-0.299 -0.033,-0.884 -0.438,-1.336"
           id="path3245"
           style="fill:#013021;fill-opacity:1;fill-rule:nonzero;stroke:none" /></g><g
         transform="translate(385.5872,305.9416)"
         id="g3247"><path
           d="m 0,0 c -0.219,0.359 -0.545,0.419 -0.791,0.419 -0.525,0 -0.784,-0.353 -0.877,-0.818 -0.027,-0.153 -0.04,-0.305 -0.04,-0.459 0,-0.578 0.146,-1.276 0.924,-1.276 0.166,0 0.319,0.027 0.452,0.1 0.531,0.273 0.531,1.017 0.531,1.176 C 0.199,-0.585 0.166,-0.266 0,0 m 0.784,-2.32 c 0,-0.086 -0.026,-0.292 -0.299,-0.292 -0.153,0 -0.233,0.086 -0.266,0.153 -0.026,0.06 -0.026,0.113 -0.02,0.299 -0.06,-0.073 -0.133,-0.16 -0.279,-0.259 -0.239,-0.16 -0.505,-0.22 -0.784,-0.22 -1.05,0 -1.476,0.871 -1.476,1.808 0,0.844 0.372,1.768 1.436,1.768 0.711,0 1.01,-0.398 1.097,-0.511 l 0,1.435 c 0,0.053 0.013,0.107 0.033,0.153 0.033,0.066 0.12,0.146 0.259,0.146 0.027,0 0.087,0 0.153,-0.033 C 0.764,2.061 0.784,1.961 0.784,1.861 l 0,-4.181 z"
           id="path3249"
           style="fill:#013021;fill-opacity:1;fill-rule:nonzero;stroke:none" /></g><g
         transform="translate(354.0281,295.5709)"
         id="g3251"><path
           d="m 0,0 c -0.027,-0.093 -0.073,-0.219 -0.359,-0.219 -0.273,0 -0.332,0.113 -0.366,0.219 L -1.522,2.685 C -1.628,3.024 -1.702,3.37 -1.755,3.722 -1.808,3.31 -1.894,2.945 -1.961,2.705 L -2.699,0.014 C -2.725,-0.093 -2.772,-0.219 -3.071,-0.219 -3.357,-0.219 -3.397,-0.1 -3.43,0 l -1.349,4.168 c -0.013,0.039 -0.02,0.079 -0.02,0.119 0,0.133 0.133,0.266 0.326,0.266 0.199,0 0.266,-0.126 0.292,-0.206 L -3.29,1.529 c 0.153,-0.498 0.186,-0.698 0.206,-0.877 0.02,0.086 0.053,0.232 0.08,0.339 0.013,0.053 0.06,0.225 0.066,0.259 l 0.831,3.077 c 0.026,0.1 0.093,0.233 0.359,0.233 0.266,0 0.332,-0.127 0.359,-0.226 l 0.851,-2.945 c 0.093,-0.319 0.132,-0.551 0.159,-0.704 0.033,0.113 0.199,0.698 0.239,0.83 l 0.844,2.832 c 0.027,0.08 0.08,0.206 0.273,0.206 0.159,0 0.319,-0.106 0.319,-0.266 0,-0.04 -0.007,-0.073 -0.013,-0.106 L 0,0 z"
           id="path3253"
           style="fill:#013021;fill-opacity:1;fill-rule:nonzero;stroke:none" /></g><g
         transform="translate(356.3885,295.6508)"
         id="g3255"><path
           d="m 0,0 c 0,-0.053 -0.013,-0.106 -0.033,-0.146 -0.027,-0.06 -0.106,-0.153 -0.266,-0.153 -0.179,0 -0.306,0.113 -0.306,0.299 l 0,2.931 c 0,0.08 0.027,0.293 0.299,0.293 C -0.026,3.224 0,3.011 0,2.931 L 0,0 z m -0.306,4.473 c 0.193,0 0.373,-0.133 0.373,-0.379 0,-0.225 -0.146,-0.365 -0.373,-0.365 -0.239,0 -0.372,0.159 -0.372,0.365 0,0.24 0.166,0.379 0.372,0.379"
           id="path3257"
           style="fill:#013021;fill-opacity:1;fill-rule:nonzero;stroke:none" /></g><g
         transform="translate(357.4861,298.316)"
         id="g3259"><path
           d="m 0,0 -0.352,0 c -0.073,0 -0.253,0.027 -0.253,0.259 0,0.239 0.18,0.26 0.253,0.26 l 0.358,0 0,0.777 c 0,0.086 0.027,0.286 0.3,0.286 0.286,0 0.306,-0.193 0.306,-0.286 l 0,-0.777 0.411,0 c 0.08,0 0.253,-0.021 0.253,-0.26 C 1.276,0.027 1.096,0 1.023,0 l -0.411,0 0,-1.688 c 0,-0.399 0.006,-0.446 0.026,-0.525 0.047,-0.193 0.173,-0.226 0.352,-0.24 0.16,-0.006 0.326,-0.019 0.326,-0.252 0,-0.233 -0.213,-0.259 -0.392,-0.259 C 0,-2.964 0,-2.466 0,-1.947 L 0,0 z"
           id="path3261"
           style="fill:#013021;fill-opacity:1;fill-rule:nonzero;stroke:none" /></g><g
         transform="translate(359.8658,298.4426)"
         id="g3263"><path
           d="M 0,0 C 0.239,0.319 0.665,0.458 1.057,0.458 1.688,0.458 1.934,0.133 1.987,0.06 2.2,-0.24 2.2,-0.625 2.2,-0.944 l 0,-1.848 C 2.2,-2.845 2.187,-2.898 2.167,-2.938 2.14,-2.998 2.06,-3.091 1.894,-3.091 c -0.279,0 -0.306,0.213 -0.306,0.299 l 0,1.662 c 0,0.412 -0.013,0.585 -0.093,0.745 -0.153,0.285 -0.458,0.292 -0.565,0.292 -0.285,0 -0.531,-0.12 -0.684,-0.279 -0.24,-0.253 -0.253,-0.539 -0.253,-0.851 l 0,-1.569 c 0,-0.053 -0.013,-0.106 -0.033,-0.146 -0.027,-0.06 -0.106,-0.153 -0.272,-0.153 -0.28,0 -0.306,0.213 -0.306,0.299 l 0,4.168 c 0,0.086 0.026,0.305 0.306,0.305 C -0.033,1.681 0,1.462 0,1.382 L 0,0 z"
           id="path3265"
           style="fill:#013021;fill-opacity:1;fill-rule:nonzero;stroke:none" /></g><g
         transform="translate(363.19,295.6508)"
         id="g3267"><path
           d="m 0,0 c 0,-0.053 -0.014,-0.106 -0.034,-0.146 -0.026,-0.06 -0.106,-0.153 -0.265,-0.153 -0.18,0 -0.306,0.113 -0.306,0.299 l 0,2.931 c 0,0.08 0.027,0.293 0.299,0.293 C -0.027,3.224 0,3.011 0,2.931 L 0,0 z m -0.306,4.473 c 0.193,0 0.372,-0.133 0.372,-0.379 0,-0.225 -0.146,-0.365 -0.372,-0.365 -0.239,0 -0.372,0.159 -0.372,0.365 0,0.24 0.166,0.379 0.372,0.379"
           id="path3269"
           style="fill:#013021;fill-opacity:1;fill-rule:nonzero;stroke:none" /></g><g
         transform="translate(363.7085,298.5822)"
         id="g3271"><path
           d="m 0,0 c 0,0.093 0.02,0.193 0.146,0.259 0.087,0.04 0.226,0.04 0.306,0 0.146,-0.073 0.146,-0.173 0.146,-0.439 0.273,0.366 0.618,0.499 1.07,0.499 0.359,0 0.698,-0.106 0.917,-0.379 0.226,-0.286 0.233,-0.638 0.233,-0.991 l 0,-1.88 c 0,-0.086 -0.027,-0.299 -0.306,-0.299 -0.053,0 -0.106,0.013 -0.159,0.033 -0.126,0.067 -0.146,0.173 -0.146,0.266 l 0,1.568 c 0,0.353 -0.013,0.432 -0.013,0.492 0,0.18 -0.04,0.665 -0.659,0.665 -0.604,0 -0.824,-0.452 -0.89,-0.758 C 0.605,-1.137 0.611,-1.31 0.611,-1.489 l 0,-1.442 c 0,-0.086 -0.026,-0.299 -0.305,-0.299 -0.053,0 -0.107,0.013 -0.16,0.033 C 0.02,-3.13 0,-3.031 0,-2.931 L 0,0 z"
           id="path3273"
           style="fill:#013021;fill-opacity:1;fill-rule:nonzero;stroke:none" /></g><g
         transform="translate(369.9312,297.8777)"
         id="g3275"><path
           d="M 0,0 0.937,0 C 1.183,0 1.469,0 1.668,0.046 1.974,0.119 2.22,0.372 2.22,0.837 2.22,1.176 2.093,1.329 2.06,1.369 1.821,1.655 1.369,1.661 0.704,1.661 L 0,1.661 0,0 z M 0,-0.532 0,-2.227 C 0,-2.28 -0.013,-2.333 -0.034,-2.38 -0.06,-2.433 -0.14,-2.526 -0.306,-2.526 c -0.279,0 -0.312,0.213 -0.312,0.299 l 0,4.128 c 0,0.073 0,0.153 0.073,0.232 0.073,0.08 0.159,0.08 0.239,0.08 l 1.449,0 C 1.549,2.213 2.08,2.193 2.439,1.894 2.672,1.708 2.865,1.369 2.865,0.871 2.865,0.704 2.851,0.239 2.419,-0.08 2.246,-0.206 2.127,-0.233 2,-0.259 2.146,-0.273 2.372,-0.306 2.546,-0.565 2.672,-0.758 2.705,-0.984 2.738,-1.203 l 0.04,-0.266 c 0.04,-0.226 0.04,-0.246 0.08,-0.445 0.02,-0.093 0.04,-0.213 0.04,-0.293 0,-0.252 -0.146,-0.326 -0.3,-0.326 -0.185,0 -0.285,0.133 -0.358,0.379 -0.074,0.246 -0.107,0.532 -0.133,0.745 -0.12,0.844 -0.346,0.877 -1.329,0.877 l -0.778,0 z"
           id="path3277"
           style="fill:#013021;fill-opacity:1;fill-rule:nonzero;stroke:none" /></g><g
         transform="translate(375.7875,297.4456)"
         id="g3279"><path
           d="m 0,0 c -0.027,0.438 -0.266,0.924 -0.897,0.924 -0.14,0 -0.412,-0.013 -0.645,-0.22 C -1.808,0.471 -1.868,0.153 -1.901,0 L 0,0 z m -1.908,-0.498 c 0.014,-0.3 0.08,-0.566 0.259,-0.785 0.226,-0.279 0.499,-0.325 0.765,-0.325 0.525,0 0.711,0.272 0.831,0.458 0.106,0.179 0.139,0.246 0.286,0.246 0.146,0 0.345,-0.087 0.345,-0.279 0,-0.027 0,-0.047 -0.007,-0.067 C 0.545,-1.376 0.432,-1.522 0.359,-1.602 -0.1,-2.12 -0.698,-2.12 -0.884,-2.12 c -0.432,0 -0.871,0.086 -1.21,0.465 -0.298,0.339 -0.439,0.817 -0.439,1.296 0,0.837 0.453,1.814 1.629,1.814 0.146,0 0.292,-0.013 0.432,-0.046 0.299,-0.073 0.558,-0.219 0.764,-0.498 0.22,-0.306 0.333,-0.738 0.333,-1.11 0,-0.28 -0.213,-0.299 -0.299,-0.299 l -2.234,0 z"
           id="path3281"
           style="fill:#013021;fill-opacity:1;fill-rule:nonzero;stroke:none" /></g><g
         transform="translate(378.2016,296.9668)"
         id="g3283"><path
           d="m 0,0 c -0.113,-0.02 -0.246,-0.053 -0.339,-0.086 -0.1,-0.034 -0.399,-0.133 -0.399,-0.505 0,-0.366 0.286,-0.552 0.618,-0.552 0.379,0 0.632,0.219 0.731,0.352 0.173,0.24 0.18,0.552 0.186,0.997 C 0.671,0.153 0.625,0.14 0.345,0.08 L 0,0 z m 1.362,-1.349 c -0.007,-0.073 -0.02,-0.266 -0.266,-0.266 -0.113,0.007 -0.212,0.047 -0.252,0.146 -0.02,0.053 -0.027,0.08 -0.027,0.319 -0.325,-0.418 -0.778,-0.492 -1.07,-0.492 -0.691,0 -1.116,0.426 -1.116,1.057 0,0.791 0.651,0.918 1.01,0.99 l 0.565,0.12 c 0.226,0.047 0.345,0.073 0.405,0.093 0.14,0.04 0.186,0.093 0.186,0.259 0,0.566 -0.572,0.566 -0.691,0.566 -0.578,0 -0.678,-0.287 -0.738,-0.466 -0.02,-0.093 -0.053,-0.212 -0.279,-0.212 -0.246,0 -0.312,0.139 -0.312,0.259 0,0.132 0.086,0.299 0.139,0.385 0.266,0.405 0.731,0.525 1.19,0.525 0.386,0 0.784,-0.073 1.03,-0.359 C 1.362,1.309 1.362,0.97 1.362,0.645 l 0,-1.994 z"
           id="path3285"
           style="fill:#013021;fill-opacity:1;fill-rule:nonzero;stroke:none" /></g><g
         transform="translate(382.4154,296.4487)"
         id="g3287"><path
           d="m 0,0 c 0.047,0.126 0.107,0.259 0.286,0.259 0.08,0 0.319,-0.047 0.319,-0.279 0,-0.093 -0.04,-0.233 -0.14,-0.399 -0.106,-0.186 -0.411,-0.705 -1.355,-0.705 -1.21,0 -1.602,0.964 -1.602,1.795 0,0.266 0.033,0.525 0.12,0.771 0.358,1.01 1.269,1.01 1.515,1.01 0.771,0 1.077,-0.325 1.256,-0.618 0.14,-0.219 0.14,-0.299 0.14,-0.346 0,-0.172 -0.147,-0.292 -0.326,-0.292 -0.186,0 -0.246,0.126 -0.319,0.279 -0.066,0.133 -0.246,0.472 -0.771,0.472 -0.704,0 -0.977,-0.605 -0.977,-1.249 0,-0.572 0.173,-1.303 0.977,-1.303 0.605,0 0.778,0.392 0.877,0.605"
           id="path3289"
           style="fill:#013021;fill-opacity:1;fill-rule:nonzero;stroke:none" /></g><g
         transform="translate(384.1713,298.4426)"
         id="g3291"><path
           d="M 0,0 C 0.239,0.319 0.665,0.458 1.057,0.458 1.688,0.458 1.934,0.133 1.987,0.06 2.2,-0.24 2.2,-0.625 2.2,-0.944 l 0,-1.848 C 2.2,-2.845 2.187,-2.898 2.167,-2.938 2.14,-2.998 2.06,-3.091 1.894,-3.091 c -0.279,0 -0.306,0.213 -0.306,0.299 l 0,1.662 c 0,0.412 -0.013,0.585 -0.093,0.745 -0.152,0.285 -0.458,0.292 -0.565,0.292 -0.285,0 -0.531,-0.12 -0.684,-0.279 -0.239,-0.253 -0.253,-0.539 -0.253,-0.851 l 0,-1.569 c 0,-0.053 -0.013,-0.106 -0.033,-0.146 -0.027,-0.06 -0.106,-0.153 -0.272,-0.153 -0.279,0 -0.306,0.213 -0.306,0.299 l 0,4.168 c 0,0.086 0.027,0.305 0.306,0.305 C -0.033,1.681 0,1.462 0,1.382 L 0,0 z"
           id="path3293"
           style="fill:#013021;fill-opacity:1;fill-rule:nonzero;stroke:none" /></g></g></g><g
     transform="matrix(1.25,0,0,-1.25,-317.37472,669.25474)"
     id="g2993"
     style="display:inline"><g
       transform="matrix(2.6524583,0,0,2.6524583,-628.50589,-479.35152)"
       id="g3852"><g
         transform="translate(369.1862,373.3605)"
         id="g3295"><path
           d="m 0,0 c -0.469,0.444 -1.041,0.796 -1.694,1.016 -2.33,0.786 -4.843,-0.395 -5.756,-2.643 -0.114,0.048 -0.229,0.098 -0.348,0.137 -1.325,0.447 -2.717,0.196 -3.776,-0.554 0.513,-3.113 0.919,-5.632 1.407,-8.585 0.027,0.027 2.053,0.927 4.605,0.542 0.024,0.7 -0.088,1.03 -0.19,1.706 1.111,0.895 1.707,1.301 2.872,1.111 0.596,1.815 1.95,5.31 2.88,7.27"
           id="path3297"
           style="fill:#40bb61;fill-opacity:1;fill-rule:nonzero;stroke:none" /></g><g
         transform="translate(369.1758,373.3571)"
         id="g3299"><path
           d="m 0,0 c -0.47,0.445 -1.041,0.796 -1.694,1.016 -2.33,0.786 -4.844,-0.395 -5.756,-2.643 -0.114,0.048 -0.229,0.098 -0.348,0.137 -1.326,0.447 -2.717,0.196 -3.776,-0.554 0.513,-3.112 0.919,-5.632 1.406,-8.585 0.028,0.027 2.053,0.927 4.606,0.542 0.024,0.701 -0.067,1.032 -0.169,1.708 1.173,0.935 1.643,1.264 2.851,1.11 C -2.284,-5.454 -0.93,-1.96 0,0"
           id="path3301"
           style="fill:#40bb61;fill-opacity:1;fill-rule:nonzero;stroke:none" /></g><g
         transform="translate(378.0411,366.8156)"
         id="g3303"><path
           d="m 0,0 c 0.651,1.658 1.417,2.128 1.706,2.333 1.236,0.796 2.924,0.88 4.182,1.229 0.535,5.694 -0.305,9.664 -3.555,10.532 -0.386,0.104 -0.769,0.154 -1.149,0.154 -1.281,0 -2.521,-0.578 -3.711,-1.613 0.553,-0.597 1.789,-2.088 1.966,-3.683 -0.904,1.427 -2.055,2.379 -2.785,2.89 -0.612,-0.652 -1.209,-1.423 -1.79,-2.3 0.236,-0.261 2.855,-3.208 3.124,-5.695 -1.23,2.025 -2.802,3.6 -3.852,4.532 -0.609,-1.033 -1.198,-2.18 -1.768,-3.42 0.846,-0.934 3.102,-3.63 3.403,-6.089 -1.608,2.484 -3.3,3.797 -4.161,4.357 -0.684,-1.639 -1.339,-3.424 -1.954,-5.289 0.084,-0.223 0.192,-0.789 0.072,-1.38 0.916,-0.066 1.641,-0.278 2.411,-0.76 0.727,-0.453 1.266,-0.988 2.086,-2.14 -1.115,-1.67 -1.586,-1.851 -1.971,-2.098 0.524,-1.026 0.952,-1.935 1.115,-3.822 0.988,0.133 1.35,0.036 1.603,0.006 C -3.783,-9.193 -1.737,-4.2 0,0"
           id="path3305"
           style="fill:#f47216;fill-opacity:1;fill-rule:nonzero;stroke:none" /></g><g
         transform="translate(353.2881,360.9387)"
         id="g3307"><path
           d="M 0,0 C 0,0 2.463,2.986 -0.768,4.931 0.276,5.212 1.969,4.656 2.239,2.836 2.491,0.481 0,0 0,0 m -2.168,12.871 c 1.044,0.28 2.737,-0.276 3.007,-2.095 C 1.092,8.42 -1.4,7.939 -1.4,7.939 c 0,0 2.463,2.986 -0.768,4.932 M 0.748,-2.864 c 1.194,2.656 3.503,3.936 3.503,3.936 0,0 -2.331,14.689 -2.331,14.689 L 1.917,15.783 C 1.915,15.787 1.914,15.791 1.911,15.798 1.899,15.83 1.871,15.89 1.793,15.969 1.642,16.12 1.252,16.397 0.2,16.445 c -2.207,0.092 -8.606,0.474 -9.512,0.529 -0.01,-0.003 -0.021,-0.006 -0.033,-0.01 -0.073,-0.022 -0.173,-0.063 -0.261,-0.118 -0.178,-0.131 -0.285,-0.21 -0.309,-0.563 10e-4,-0.292 0.195,-2.119 0.481,-4.512 0.291,-2.455 0.68,-5.59 1.069,-8.679 0.206,-1.64 0.412,-3.265 0.604,-4.768 2.005,0.409 3.252,-0.452 3.252,-0.452 l -1.776,14.96 c -0.038,0.317 0.19,0.606 0.507,0.643 0.318,0.038 0.606,-0.189 0.643,-0.506 l 1.907,-16.068 c 0,0 0.251,-0.241 0.377,-0.398 1.901,1.007 3.354,0.677 3.599,0.633 m -15.352,16.115 c 0.176,-2.074 0.325,-3.117 0.325,-3.117 0,0 -0.146,-0.615 1.385,-1.007 0.656,-0.168 1.304,-0.307 1.832,-0.411 -0.803,-0.52 -1.859,-1.37 -2.389,-2.504 0.177,-2.073 0.29,-3.097 0.29,-3.097 0,0 0.098,-0.72 1.385,-1.007 0.725,-0.162 1.434,-0.309 1.984,-0.421 -0.449,-0.223 -1.779,-0.955 -2.692,-2.092 1.923,-0.367 2.815,-1.537 3.147,-1.778 0.03,0.006 0.056,0.006 0.072,0.012 -0.28,2.275 -1.939,15.762 -2.262,18.299 -0.753,-0.395 -2.382,-1.386 -3.077,-2.877"
           id="path3309"
           style="fill:#6243a4;fill-opacity:1;fill-rule:nonzero;stroke:none" /></g><g
         transform="translate(398.257,348.6802)"
         id="g3311"><path
           d="m 0,0 c 0.641,-0.189 1.122,-0.692 1.122,-1.165 0,-0.423 -0.321,-0.656 -0.649,-0.656 -0.211,0 -0.422,0.095 -0.553,0.321 -0.029,0.058 -0.058,0.124 -0.087,0.182 -0.03,0.044 -0.059,0.094 -0.095,0.131 -0.226,0.233 -0.67,0.24 -0.743,0.24 -0.393,0 -0.67,-0.153 -0.67,-0.422 0,-0.19 0.168,-0.27 0.335,-0.328 0.211,-0.073 1.296,-0.342 1.537,-0.429 0.684,-0.263 1.092,-0.773 1.092,-1.413 0,-0.313 -0.095,-0.707 -0.342,-1.02 -0.43,-0.539 -1.136,-0.706 -1.821,-0.706 -0.896,0 -1.566,0.175 -2.002,0.619 -0.314,0.313 -0.401,0.692 -0.401,0.903 0,0.415 0.306,0.684 0.663,0.684 0.095,0 0.182,-0.014 0.269,-0.051 0.197,-0.094 0.292,-0.255 0.343,-0.378 0.036,-0.066 0.058,-0.139 0.087,-0.211 0.051,-0.088 0.109,-0.175 0.197,-0.241 0.262,-0.204 0.698,-0.218 0.793,-0.218 0.437,0 0.772,0.189 0.772,0.473 0,0.284 -0.269,0.364 -0.881,0.524 -0.998,0.27 -1.231,0.335 -1.537,0.583 -0.407,0.32 -0.524,0.765 -0.524,1.1 0,0.713 0.546,1.609 2.032,1.609 C -0.706,0.131 -0.342,0.102 0,0"
           id="path3313"
           style="fill:#024d36;fill-opacity:1;fill-rule:nonzero;stroke:none" /></g><g
         transform="translate(404.1781,343.8229)"
         id="g3315"><path
           d="m 0,0 c -0.008,-0.102 -0.022,-0.211 -0.16,-0.284 -0.095,-0.044 -0.234,-0.044 -0.336,0 -0.152,0.08 -0.152,0.197 -0.152,0.488 -0.314,-0.415 -0.627,-0.554 -1.158,-0.554 -0.175,0 -0.641,0.015 -0.969,0.372 -0.313,0.349 -0.313,0.815 -0.313,1.158 l 0,2.024 c 0,0.095 0.029,0.335 0.335,0.335 0.306,0 0.342,-0.233 0.342,-0.328 l 0,-1.813 c 0,-0.488 0.022,-0.692 0.117,-0.866 0.167,-0.306 0.51,-0.306 0.597,-0.306 0.474,0 0.874,0.284 0.983,0.772 0.044,0.182 0.037,0.342 0.037,0.611 l 0,1.595 c 0,0.095 0.029,0.335 0.334,0.335 C -0.03,3.539 0,3.299 0,3.204 L 0,0 z"
           id="path3317"
           style="fill:#024d36;fill-opacity:1;fill-rule:nonzero;stroke:none" /></g><g
         transform="translate(407.7758,346.8378)"
         id="g3319"><path
           d="m 0,0 c -0.685,0 -1.056,-0.524 -1.056,-1.362 0,-0.845 0.35,-1.464 1.049,-1.464 0.385,0 0.633,0.197 0.772,0.386 0.204,0.277 0.247,0.685 0.247,1.027 C 1.012,-1.027 0.983,0 0,0 m -1.718,0.196 c 0,0.095 0.028,0.328 0.334,0.328 0.029,0 0.102,0 0.175,-0.036 0.168,-0.08 0.168,-0.219 0.168,-0.437 0.291,0.349 0.655,0.51 1.121,0.51 0.932,0 1.624,-0.714 1.624,-1.959 0,-0.903 -0.393,-1.967 -1.544,-1.967 -0.604,0 -0.888,0.241 -1.201,0.518 l 0,-1.523 c 0,-0.094 -0.03,-0.334 -0.343,-0.334 -0.058,0 -0.116,0.014 -0.167,0.036 -0.146,0.08 -0.167,0.189 -0.167,0.298 l 0,4.566 z"
           id="path3321"
           style="fill:#024d36;fill-opacity:1;fill-rule:nonzero;stroke:none" /></g><g
         transform="translate(412.8952,346.8378)"
         id="g3323"><path
           d="m 0,0 c -0.684,0 -1.056,-0.524 -1.056,-1.362 0,-0.845 0.35,-1.464 1.049,-1.464 0.386,0 0.633,0.197 0.772,0.386 0.204,0.277 0.247,0.685 0.247,1.027 C 1.012,-1.027 0.983,0 0,0 m -1.718,0.196 c 0,0.095 0.029,0.328 0.334,0.328 0.03,0 0.102,0 0.176,-0.036 0.167,-0.08 0.167,-0.219 0.167,-0.437 0.291,0.349 0.655,0.51 1.121,0.51 0.932,0 1.624,-0.714 1.624,-1.959 0,-0.903 -0.393,-1.967 -1.544,-1.967 -0.604,0 -0.888,0.241 -1.201,0.518 l 0,-1.523 c 0,-0.094 -0.029,-0.334 -0.343,-0.334 -0.058,0 -0.116,0.014 -0.167,0.036 -0.145,0.08 -0.167,0.189 -0.167,0.298 l 0,4.566 z"
           id="path3325"
           style="fill:#024d36;fill-opacity:1;fill-rule:nonzero;stroke:none" /></g><g
         transform="translate(416.9597,343.8302)"
         id="g3327"><path
           d="m 0,0 c 0,-0.087 -0.03,-0.328 -0.336,-0.328 -0.189,0 -0.335,0.109 -0.335,0.328 l 0,4.58 c 0,0.088 0.037,0.321 0.335,0.321 C -0.03,4.901 0,4.668 0,4.58 L 0,0 z"
           id="path3329"
           style="fill:#024d36;fill-opacity:1;fill-rule:nonzero;stroke:none" /></g><g
         transform="translate(421.4302,345.7964)"
         id="g3331"><path
           d="m 0,0 c -0.029,0.481 -0.291,1.012 -0.983,1.012 -0.153,0 -0.451,-0.014 -0.706,-0.24 C -1.98,0.517 -2.046,0.167 -2.082,0 L 0,0 z m -2.09,-0.546 c 0.015,-0.328 0.088,-0.619 0.284,-0.86 0.248,-0.305 0.547,-0.356 0.838,-0.356 0.575,0 0.779,0.298 0.91,0.502 0.117,0.197 0.153,0.27 0.313,0.27 0.161,0 0.379,-0.095 0.379,-0.306 0,-0.029 0,-0.051 -0.007,-0.073 -0.03,-0.138 -0.153,-0.299 -0.233,-0.386 -0.503,-0.568 -1.158,-0.568 -1.362,-0.568 -0.474,0 -0.954,0.095 -1.326,0.51 -0.327,0.371 -0.48,0.895 -0.48,1.42 0,0.917 0.495,1.988 1.784,1.988 0.16,0 0.32,-0.015 0.473,-0.051 0.328,-0.08 0.612,-0.241 0.838,-0.546 0.24,-0.335 0.364,-0.809 0.364,-1.217 0,-0.305 -0.233,-0.327 -0.328,-0.327 l -2.447,0 z"
           id="path3333"
           style="fill:#024d36;fill-opacity:1;fill-rule:nonzero;stroke:none" /></g><g
         transform="translate(423.8052,347.049)"
         id="g3335"><path
           d="m 0,0 c 0,0.102 0.022,0.211 0.16,0.277 0.08,0.043 0.247,0.058 0.35,0 0.152,-0.073 0.152,-0.19 0.152,-0.437 0.284,0.349 0.605,0.509 1.063,0.509 0.219,0 0.438,-0.036 0.627,-0.145 0.262,-0.138 0.364,-0.342 0.415,-0.444 0.284,0.342 0.627,0.589 1.18,0.589 0.364,0 0.735,-0.065 1.005,-0.386 0.247,-0.298 0.262,-0.633 0.262,-0.997 l 0,-2.178 c 0,-0.094 -0.029,-0.335 -0.342,-0.335 -0.059,0 -0.117,0.015 -0.168,0.044 -0.146,0.066 -0.168,0.182 -0.168,0.291 l 0,1.632 c 0,0.218 -0.007,0.422 -0.007,0.539 0,0.24 -0.022,0.801 -0.684,0.801 -0.393,0 -0.627,-0.212 -0.743,-0.386 -0.16,-0.241 -0.16,-0.481 -0.16,-0.787 l 0,-1.806 c 0,-0.102 -0.022,-0.218 -0.16,-0.284 -0.066,-0.036 -0.139,-0.044 -0.175,-0.044 -0.059,0 -0.117,0.015 -0.175,0.044 -0.138,0.066 -0.16,0.182 -0.16,0.284 l 0,1.843 c 0,0.342 0,0.407 -0.015,0.517 C 2.243,-0.736 2.184,-0.24 1.595,-0.24 1.296,-0.24 1.027,-0.35 0.852,-0.626 0.684,-0.888 0.677,-1.158 0.677,-1.551 l 0,-1.668 C 0.677,-3.27 0.662,-3.328 0.641,-3.379 0.612,-3.445 0.517,-3.547 0.342,-3.547 0.029,-3.547 0,-3.306 0,-3.219 L 0,0 z"
           id="path3337"
           style="fill:#024d36;fill-opacity:1;fill-rule:nonzero;stroke:none" /></g><g
         transform="translate(433.4907,345.7964)"
         id="g3339"><path
           d="m 0,0 c -0.029,0.481 -0.291,1.012 -0.983,1.012 -0.153,0 -0.451,-0.014 -0.706,-0.24 C -1.981,0.517 -2.046,0.167 -2.082,0 L 0,0 z m -2.09,-0.546 c 0.015,-0.328 0.088,-0.619 0.284,-0.86 0.248,-0.305 0.547,-0.356 0.838,-0.356 0.575,0 0.779,0.298 0.91,0.502 0.117,0.197 0.153,0.27 0.313,0.27 0.16,0 0.379,-0.095 0.379,-0.306 0,-0.029 0,-0.051 -0.007,-0.073 -0.03,-0.138 -0.153,-0.299 -0.233,-0.386 -0.503,-0.568 -1.158,-0.568 -1.362,-0.568 -0.474,0 -0.954,0.095 -1.326,0.51 -0.328,0.371 -0.48,0.895 -0.48,1.42 0,0.917 0.495,1.988 1.784,1.988 0.16,0 0.32,-0.015 0.473,-0.051 0.328,-0.08 0.612,-0.241 0.838,-0.546 0.24,-0.335 0.364,-0.809 0.364,-1.217 0,-0.305 -0.233,-0.327 -0.328,-0.327 l -2.447,0 z"
           id="path3341"
           style="fill:#024d36;fill-opacity:1;fill-rule:nonzero;stroke:none" /></g><g
         transform="translate(435.8651,347.0417)"
         id="g3343"><path
           d="m 0,0 c 0,0.102 0.022,0.211 0.16,0.284 0.095,0.044 0.248,0.044 0.335,0 0.16,-0.08 0.16,-0.189 0.16,-0.481 0.299,0.401 0.678,0.546 1.173,0.546 0.393,0 0.764,-0.116 1.005,-0.415 0.247,-0.313 0.255,-0.699 0.255,-1.085 l 0,-2.06 c 0,-0.095 -0.03,-0.328 -0.335,-0.328 -0.058,0 -0.117,0.014 -0.175,0.036 -0.138,0.073 -0.16,0.189 -0.16,0.292 l 0,1.718 c 0,0.386 -0.015,0.473 -0.015,0.539 0,0.197 -0.043,0.728 -0.721,0.728 -0.662,0 -0.903,-0.495 -0.976,-0.83 C 0.662,-1.245 0.67,-1.435 0.67,-1.631 l 0,-1.58 c 0,-0.095 -0.029,-0.328 -0.335,-0.328 -0.058,0 -0.117,0.014 -0.175,0.036 C 0.022,-3.43 0,-3.321 0,-3.211 L 0,0 z"
           id="path3345"
           style="fill:#024d36;fill-opacity:1;fill-rule:nonzero;stroke:none" /></g><g
         transform="translate(440.8829,346.7504)"
         id="g3347"><path
           d="m 0,0 -0.386,0 c -0.08,0 -0.276,0.029 -0.276,0.284 0,0.262 0.196,0.284 0.276,0.284 l 0.393,0 0,0.852 c 0,0.095 0.03,0.313 0.328,0.313 0.313,0 0.335,-0.211 0.335,-0.313 l 0,-0.852 0.452,0 C 1.209,0.568 1.398,0.546 1.398,0.284 1.398,0.029 1.202,0 1.122,0 l -0.452,0 0,-1.85 c 0,-0.437 0.007,-0.488 0.029,-0.575 0.051,-0.211 0.19,-0.248 0.386,-0.262 0.175,-0.007 0.357,-0.022 0.357,-0.277 0,-0.255 -0.233,-0.284 -0.43,-0.284 C 0,-3.248 0,-2.702 0,-2.134 L 0,0 z"
           id="path3349"
           style="fill:#024d36;fill-opacity:1;fill-rule:nonzero;stroke:none" /></g><g
         transform="translate(445.1215,345.2721)"
         id="g3351"><path
           d="m 0,0 c -0.124,-0.022 -0.27,-0.058 -0.372,-0.095 -0.109,-0.036 -0.437,-0.145 -0.437,-0.553 0,-0.401 0.314,-0.605 0.678,-0.605 0.415,0 0.692,0.241 0.801,0.386 0.189,0.263 0.197,0.605 0.203,1.093 C 0.735,0.167 0.684,0.153 0.378,0.087 L 0,0 z M 1.493,-1.478 C 1.485,-1.558 1.471,-1.77 1.201,-1.77 1.078,-1.762 0.968,-1.719 0.924,-1.61 0.903,-1.551 0.895,-1.522 0.895,-1.26 0.539,-1.719 0.044,-1.799 -0.277,-1.799 c -0.757,0 -1.223,0.466 -1.223,1.158 0,0.867 0.713,1.005 1.106,1.085 l 0.62,0.131 C 0.473,0.626 0.604,0.655 0.67,0.677 0.823,0.721 0.873,0.779 0.873,0.961 0.873,1.58 0.247,1.58 0.116,1.58 -0.517,1.58 -0.627,1.267 -0.692,1.07 -0.714,0.969 -0.75,0.837 -0.998,0.837 c -0.269,0 -0.342,0.153 -0.342,0.284 0,0.146 0.095,0.328 0.153,0.423 0.291,0.444 0.801,0.575 1.303,0.575 0.423,0 0.86,-0.08 1.129,-0.393 0.248,-0.291 0.248,-0.663 0.248,-1.02 l 0,-2.184 z"
           id="path3353"
           style="fill:#024d36;fill-opacity:1;fill-rule:nonzero;stroke:none" /></g><g
         transform="translate(449.1629,343.8302)"
         id="g3355"><path
           d="m 0,0 c 0,-0.087 -0.029,-0.328 -0.335,-0.328 -0.189,0 -0.335,0.109 -0.335,0.328 l 0,4.58 c 0,0.088 0.037,0.321 0.335,0.321 C -0.029,4.901 0,4.668 0,4.58 L 0,0 z"
           id="path3357"
           style="fill:#024d36;fill-opacity:1;fill-rule:nonzero;stroke:none" /></g><g
         transform="translate(395.184,339.1583)"
         id="g3359"><path
           d="m 0,0 c 0,0.153 0.022,0.386 0.211,0.568 0.175,0.16 0.394,0.175 0.59,0.175 0.415,0 0.561,-0.131 0.721,-0.393 C 1.784,-0.08 2.039,-0.51 2.294,-0.939 2.6,-1.464 2.891,-1.995 3.19,-2.52 L 3.131,0 c 0,0.145 0.015,0.291 0.11,0.444 0.167,0.284 0.451,0.299 0.553,0.299 0.175,0 0.342,-0.059 0.488,-0.204 C 4.479,0.328 4.479,0.08 4.486,-0.102 l 0,-3.648 c 0,-0.175 -0.015,-0.794 -0.75,-0.794 -0.241,0 -0.539,0.087 -0.911,0.604 -0.262,0.364 -1.019,1.697 -1.529,2.593 l 0.059,-2.418 c -0.008,-0.16 -0.008,-0.32 -0.11,-0.488 -0.124,-0.196 -0.342,-0.306 -0.56,-0.306 -0.102,0 -0.219,0.03 -0.321,0.088 C 0.022,-4.289 0,-3.947 0,-3.678 L 0,0 z"
           id="path3361"
           style="fill:#024d36;fill-opacity:1;fill-rule:nonzero;stroke:none" /></g><g
         transform="translate(404.185,334.9495)"
         id="g3363"><path
           d="m 0,0 c -0.007,-0.102 -0.022,-0.211 -0.16,-0.284 -0.095,-0.044 -0.233,-0.044 -0.335,0 -0.153,0.08 -0.153,0.196 -0.153,0.487 -0.313,-0.414 -0.627,-0.553 -1.158,-0.553 -0.175,0 -0.641,0.014 -0.968,0.372 -0.314,0.349 -0.314,0.815 -0.314,1.157 l 0,2.025 c 0,0.094 0.029,0.335 0.335,0.335 0.306,0 0.342,-0.233 0.342,-0.328 l 0,-1.813 c 0,-0.488 0.022,-0.692 0.117,-0.867 0.167,-0.306 0.51,-0.306 0.597,-0.306 0.474,0 0.874,0.284 0.984,0.773 0.043,0.181 0.036,0.342 0.036,0.611 l 0,1.595 c 0,0.094 0.029,0.335 0.334,0.335 C -0.029,3.539 0,3.298 0,3.204 L 0,0 z"
           id="path3365"
           style="fill:#024d36;fill-opacity:1;fill-rule:nonzero;stroke:none" /></g><g
         transform="translate(406.1152,337.8766)"
         id="g3367"><path
           d="m 0,0 -0.386,0 c -0.08,0 -0.277,0.029 -0.277,0.284 0,0.262 0.197,0.284 0.277,0.284 l 0.393,0 0,0.852 c 0,0.095 0.03,0.313 0.328,0.313 0.313,0 0.335,-0.211 0.335,-0.313 l 0,-0.852 0.451,0 C 1.209,0.568 1.398,0.546 1.398,0.284 1.398,0.029 1.201,0 1.121,0 l -0.451,0 0,-1.85 c 0,-0.437 0.007,-0.488 0.029,-0.575 0.051,-0.212 0.19,-0.248 0.386,-0.262 0.175,-0.008 0.357,-0.022 0.357,-0.277 0,-0.255 -0.233,-0.284 -0.43,-0.284 C 0,-3.248 0,-2.702 0,-2.134 L 0,0 z"
           id="path3369"
           style="fill:#024d36;fill-opacity:1;fill-rule:nonzero;stroke:none" /></g><g
         transform="translate(409.6983,337.8037)"
         id="g3371"><path
           d="m 0,0 c 0.139,0.415 0.554,0.684 0.983,0.684 0.08,0 0.401,0 0.401,-0.327 C 1.384,0.102 1.18,0.058 1.078,0.044 0.896,0.015 0.706,-0.015 0.51,-0.138 0.029,-0.473 0.029,-0.983 0.029,-1.42 l 0,-1.449 c 0,-0.116 -0.021,-0.306 -0.335,-0.306 -0.298,0 -0.327,0.204 -0.327,0.306 l 0,3.247 c 0,0.088 0.029,0.306 0.32,0.306 C -0.029,0.684 0,0.466 0,0.378 L 0,0 z"
           id="path3373"
           style="fill:#024d36;fill-opacity:1;fill-rule:nonzero;stroke:none" /></g><g
         transform="translate(413.1799,334.9564)"
         id="g3375"><path
           d="m 0,0 c 0,-0.058 -0.015,-0.116 -0.037,-0.16 -0.029,-0.066 -0.116,-0.168 -0.291,-0.168 -0.197,0 -0.335,0.124 -0.335,0.328 l 0,3.212 c 0,0.087 0.029,0.32 0.328,0.32 C -0.03,3.532 0,3.299 0,3.212 L 0,0 z m -0.335,4.901 c 0.211,0 0.408,-0.146 0.408,-0.415 0,-0.248 -0.161,-0.401 -0.408,-0.401 -0.262,0 -0.408,0.175 -0.408,0.401 0,0.262 0.182,0.415 0.408,0.415"
           id="path3377"
           style="fill:#024d36;fill-opacity:1;fill-rule:nonzero;stroke:none" /></g><g
         transform="translate(415.1094,337.8766)"
         id="g3379"><path
           d="m 0,0 -0.386,0 c -0.08,0 -0.277,0.029 -0.277,0.284 0,0.262 0.197,0.284 0.277,0.284 l 0.393,0 0,0.852 c 0,0.095 0.029,0.313 0.328,0.313 0.313,0 0.335,-0.211 0.335,-0.313 l 0,-0.852 0.451,0 C 1.208,0.568 1.398,0.546 1.398,0.284 1.398,0.029 1.201,0 1.121,0 l -0.451,0 0,-1.85 c 0,-0.437 0.007,-0.488 0.029,-0.575 0.051,-0.212 0.189,-0.248 0.386,-0.262 0.175,-0.008 0.357,-0.022 0.357,-0.277 0,-0.255 -0.234,-0.284 -0.43,-0.284 C 0,-3.248 0,-2.702 0,-2.134 L 0,0 z"
           id="path3381"
           style="fill:#024d36;fill-opacity:1;fill-rule:nonzero;stroke:none" /></g><g
         transform="translate(418.7214,334.9564)"
         id="g3383"><path
           d="m 0,0 c 0,-0.058 -0.014,-0.116 -0.036,-0.16 -0.029,-0.066 -0.117,-0.168 -0.292,-0.168 -0.196,0 -0.334,0.124 -0.334,0.328 l 0,3.212 c 0,0.087 0.028,0.32 0.327,0.32 C -0.029,3.532 0,3.299 0,3.212 L 0,0 z m -0.335,4.901 c 0.212,0 0.408,-0.146 0.408,-0.415 0,-0.248 -0.16,-0.401 -0.408,-0.401 -0.262,0 -0.408,0.175 -0.408,0.401 0,0.262 0.182,0.415 0.408,0.415"
           id="path3385"
           style="fill:#024d36;fill-opacity:1;fill-rule:nonzero;stroke:none" /></g><g
         transform="translate(423.0622,335.5317)"
         id="g3387"><path
           d="m 0,0 c 0.255,0.328 0.269,0.794 0.269,1.02 0,0.706 -0.233,1.413 -1.121,1.413 -0.197,0 -0.583,-0.03 -0.86,-0.416 -0.189,-0.277 -0.247,-0.662 -0.247,-1.005 0,-0.371 0.065,-0.772 0.269,-1.034 0.146,-0.182 0.43,-0.371 0.845,-0.371 0.328,0 0.648,0.131 0.845,0.393 m 0.48,-0.401 c -0.444,-0.487 -0.99,-0.531 -1.34,-0.531 -0.378,0 -0.902,0.051 -1.318,0.51 -0.451,0.495 -0.466,1.165 -0.466,1.434 0,0.35 0.037,0.961 0.452,1.435 0.451,0.502 1.056,0.546 1.369,0.546 1.071,0 1.784,-0.685 1.784,-1.93 0,-0.327 -0.037,-0.968 -0.481,-1.464"
           id="path3389"
           style="fill:#024d36;fill-opacity:1;fill-rule:nonzero;stroke:none" /></g><g
         transform="translate(425.7204,338.1679)"
         id="g3391"><path
           d="m 0,0 c 0,0.102 0.022,0.211 0.16,0.284 0.095,0.044 0.247,0.044 0.335,0 0.16,-0.08 0.16,-0.189 0.16,-0.481 0.299,0.401 0.678,0.547 1.173,0.547 0.393,0 0.764,-0.117 1.004,-0.416 0.248,-0.313 0.256,-0.699 0.256,-1.085 l 0,-2.061 c 0,-0.094 -0.03,-0.327 -0.336,-0.327 -0.058,0 -0.116,0.015 -0.174,0.036 -0.138,0.073 -0.16,0.189 -0.16,0.291 l 0,1.719 c 0,0.386 -0.015,0.473 -0.015,0.539 0,0.197 -0.044,0.728 -0.721,0.728 -0.663,0 -0.903,-0.495 -0.976,-0.83 C 0.662,-1.245 0.67,-1.434 0.67,-1.631 l 0,-1.581 c 0,-0.094 -0.029,-0.327 -0.335,-0.327 -0.059,0 -0.117,0.015 -0.175,0.036 C 0.022,-3.43 0,-3.321 0,-3.212 L 0,0 z"
           id="path3393"
           style="fill:#024d36;fill-opacity:1;fill-rule:nonzero;stroke:none" /></g><g
         transform="translate(397.1867,329.6144)"
         id="g3395"><path
           d="m 0,0 -0.51,-1.762 1.027,0 L 0,0 z m -0.991,0.794 c 0.153,0.437 0.364,0.553 0.889,0.568 0.714,0 0.925,-0.037 1.136,-0.626 l 1.238,-3.488 c 0.051,-0.154 0.102,-0.292 0.102,-0.445 0,-0.488 -0.423,-0.692 -0.714,-0.692 -0.102,0 -0.269,0.044 -0.378,0.117 -0.219,0.146 -0.292,0.393 -0.365,0.626 l -0.08,0.284 -1.66,0 -0.109,-0.378 c -0.08,-0.27 -0.204,-0.649 -0.692,-0.649 -0.335,0 -0.721,0.226 -0.721,0.685 0,0.153 0.044,0.284 0.087,0.43 l 1.267,3.568 z"
           id="path3397"
           style="fill:#024d36;fill-opacity:1;fill-rule:nonzero;stroke:none" /></g><g
         transform="translate(402.5395,327.9905)"
         id="g3399"><path
           d="m 0,0 c 0.393,-0.116 1.099,-0.321 1.099,-1.114 0,-0.466 -0.24,-0.75 -0.458,-0.896 -0.277,-0.189 -0.663,-0.255 -0.998,-0.255 -0.211,0 -0.728,0.022 -1.1,0.335 -0.335,0.284 -0.4,0.685 -0.4,0.787 0,0.248 0.247,0.306 0.357,0.306 0.167,0 0.211,-0.088 0.247,-0.16 0.102,-0.277 0.109,-0.306 0.161,-0.387 0.167,-0.255 0.473,-0.356 0.779,-0.356 0.429,0 0.75,0.225 0.75,0.568 0,0.378 -0.336,0.473 -0.707,0.582 l -0.422,0.124 c -0.4,0.131 -1.019,0.335 -1.019,1.034 0,0.189 0.072,1.085 1.325,1.085 1.231,0 1.427,-0.837 1.427,-0.983 0,-0.219 -0.196,-0.284 -0.306,-0.284 -0.16,0 -0.204,0.08 -0.313,0.291 -0.066,0.124 -0.262,0.467 -0.838,0.467 -0.087,0 -0.283,-0.008 -0.422,-0.103 -0.123,-0.08 -0.211,-0.225 -0.211,-0.385 0,-0.335 0.292,-0.423 0.627,-0.525 L 0,0 z"
           id="path3401"
           style="fill:#024d36;fill-opacity:1;fill-rule:nonzero;stroke:none" /></g><g
         transform="translate(406.9016,327.9905)"
         id="g3403"><path
           d="m 0,0 c 0.394,-0.116 1.1,-0.321 1.1,-1.114 0,-0.466 -0.24,-0.75 -0.459,-0.896 -0.277,-0.189 -0.663,-0.255 -0.998,-0.255 -0.211,0 -0.728,0.022 -1.099,0.335 -0.335,0.284 -0.401,0.685 -0.401,0.787 0,0.248 0.247,0.306 0.357,0.306 0.167,0 0.211,-0.088 0.247,-0.16 0.102,-0.277 0.109,-0.306 0.161,-0.387 0.167,-0.255 0.473,-0.356 0.779,-0.356 0.43,0 0.75,0.225 0.75,0.568 0,0.378 -0.335,0.473 -0.706,0.582 l -0.423,0.124 c -0.4,0.131 -1.019,0.335 -1.019,1.034 0,0.189 0.072,1.085 1.325,1.085 1.231,0 1.427,-0.837 1.427,-0.983 0,-0.219 -0.196,-0.284 -0.306,-0.284 -0.16,0 -0.203,0.08 -0.313,0.291 -0.065,0.124 -0.262,0.467 -0.837,0.467 -0.088,0 -0.284,-0.008 -0.423,-0.103 -0.123,-0.08 -0.211,-0.225 -0.211,-0.385 0,-0.335 0.292,-0.423 0.627,-0.525 L 0,0 z"
           id="path3405"
           style="fill:#024d36;fill-opacity:1;fill-rule:nonzero;stroke:none" /></g><g
         transform="translate(410.3245,326.0827)"
         id="g3407"><path
           d="m 0,0 c 0,-0.058 -0.015,-0.117 -0.036,-0.16 -0.03,-0.066 -0.117,-0.168 -0.292,-0.168 -0.196,0 -0.334,0.124 -0.334,0.328 l 0,3.211 c 0,0.088 0.028,0.321 0.327,0.321 C -0.029,3.532 0,3.299 0,3.211 L 0,0 z m -0.335,4.901 c 0.211,0 0.408,-0.146 0.408,-0.415 0,-0.248 -0.16,-0.401 -0.408,-0.401 -0.262,0 -0.408,0.175 -0.408,0.401 0,0.262 0.182,0.415 0.408,0.415"
           id="path3409"
           style="fill:#024d36;fill-opacity:1;fill-rule:nonzero;stroke:none" /></g><g
         transform="translate(413.8057,327.9905)"
         id="g3411"><path
           d="m 0,0 c 0.393,-0.116 1.099,-0.321 1.099,-1.114 0,-0.466 -0.24,-0.75 -0.458,-0.896 -0.277,-0.189 -0.663,-0.255 -0.998,-0.255 -0.211,0 -0.728,0.022 -1.1,0.335 -0.335,0.284 -0.4,0.685 -0.4,0.787 0,0.248 0.247,0.306 0.357,0.306 0.167,0 0.211,-0.088 0.247,-0.16 0.102,-0.277 0.109,-0.306 0.161,-0.387 0.167,-0.255 0.473,-0.356 0.779,-0.356 0.429,0 0.75,0.225 0.75,0.568 0,0.378 -0.336,0.473 -0.707,0.582 l -0.422,0.124 c -0.4,0.131 -1.019,0.335 -1.019,1.034 0,0.189 0.072,1.085 1.325,1.085 1.231,0 1.427,-0.837 1.427,-0.983 0,-0.219 -0.196,-0.284 -0.306,-0.284 -0.16,0 -0.203,0.08 -0.313,0.291 -0.065,0.124 -0.262,0.467 -0.837,0.467 -0.088,0 -0.284,-0.008 -0.423,-0.103 -0.123,-0.08 -0.211,-0.225 -0.211,-0.385 0,-0.335 0.292,-0.423 0.627,-0.525 L 0,0 z"
           id="path3413"
           style="fill:#024d36;fill-opacity:1;fill-rule:nonzero;stroke:none" /></g><g
         transform="translate(416.6168,329.0029)"
         id="g3415"><path
           d="m 0,0 -0.386,0 c -0.08,0 -0.277,0.029 -0.277,0.284 0,0.262 0.197,0.284 0.277,0.284 l 0.393,0 0,0.852 c 0,0.095 0.03,0.313 0.328,0.313 0.313,0 0.335,-0.211 0.335,-0.313 l 0,-0.852 0.451,0 C 1.209,0.568 1.398,0.546 1.398,0.284 1.398,0.029 1.201,0 1.121,0 l -0.451,0 0,-1.85 c 0,-0.437 0.007,-0.488 0.029,-0.575 0.051,-0.212 0.19,-0.248 0.386,-0.262 0.175,-0.008 0.357,-0.022 0.357,-0.277 0,-0.255 -0.233,-0.284 -0.43,-0.284 C 0,-3.248 0,-2.702 0,-2.134 L 0,0 z"
           id="path3417"
           style="fill:#024d36;fill-opacity:1;fill-rule:nonzero;stroke:none" /></g><g
         transform="translate(420.8553,327.5245)"
         id="g3419"><path
           d="m 0,0 c -0.124,-0.022 -0.269,-0.058 -0.372,-0.095 -0.109,-0.036 -0.437,-0.145 -0.437,-0.553 0,-0.401 0.314,-0.604 0.678,-0.604 0.415,0 0.692,0.24 0.801,0.385 0.189,0.263 0.197,0.605 0.204,1.093 C 0.735,0.167 0.685,0.153 0.379,0.088 L 0,0 z M 1.493,-1.478 C 1.486,-1.558 1.471,-1.769 1.201,-1.769 1.078,-1.762 0.968,-1.719 0.925,-1.609 0.903,-1.551 0.896,-1.522 0.896,-1.26 0.539,-1.719 0.044,-1.799 -0.277,-1.799 c -0.757,0 -1.223,0.466 -1.223,1.158 0,0.867 0.713,1.005 1.107,1.085 L 0.226,0.575 C 0.473,0.626 0.605,0.656 0.67,0.677 0.823,0.721 0.874,0.779 0.874,0.961 0.874,1.58 0.248,1.58 0.117,1.58 -0.517,1.58 -0.626,1.267 -0.692,1.071 -0.713,0.968 -0.75,0.837 -0.998,0.837 c -0.269,0 -0.342,0.153 -0.342,0.285 0,0.145 0.095,0.327 0.153,0.422 0.291,0.444 0.801,0.575 1.304,0.575 0.422,0 0.859,-0.08 1.128,-0.393 0.248,-0.291 0.248,-0.663 0.248,-1.02 l 0,-2.184 z"
           id="path3421"
           style="fill:#024d36;fill-opacity:1;fill-rule:nonzero;stroke:none" /></g><g
         transform="translate(424.2346,329.2938)"
         id="g3423"><path
           d="m 0,0 c 0,0.102 0.022,0.211 0.16,0.284 0.095,0.044 0.248,0.044 0.335,0 0.16,-0.08 0.16,-0.189 0.16,-0.48 0.299,0.4 0.678,0.546 1.173,0.546 0.393,0 0.764,-0.117 1.005,-0.416 0.247,-0.312 0.255,-0.698 0.255,-1.084 l 0,-2.061 c 0,-0.095 -0.03,-0.328 -0.335,-0.328 -0.059,0 -0.117,0.015 -0.175,0.037 -0.138,0.072 -0.16,0.189 -0.16,0.291 l 0,1.718 c 0,0.386 -0.015,0.474 -0.015,0.539 0,0.197 -0.044,0.729 -0.721,0.729 -0.662,0 -0.903,-0.496 -0.976,-0.831 C 0.663,-1.245 0.67,-1.434 0.67,-1.631 l 0,-1.58 c 0,-0.095 -0.029,-0.328 -0.335,-0.328 -0.058,0 -0.117,0.015 -0.175,0.037 C 0.022,-3.43 0,-3.32 0,-3.211 L 0,0 z"
           id="path3425"
           style="fill:#024d36;fill-opacity:1;fill-rule:nonzero;stroke:none" /></g><g
         transform="translate(431.7499,326.9566)"
         id="g3427"><path
           d="m 0,0 c 0.051,0.138 0.117,0.284 0.314,0.284 0.087,0 0.349,-0.051 0.349,-0.306 0,-0.102 -0.044,-0.255 -0.153,-0.437 -0.116,-0.203 -0.451,-0.772 -1.485,-0.772 -1.326,0 -1.756,1.056 -1.756,1.966 0,0.292 0.037,0.576 0.131,0.845 0.394,1.107 1.392,1.107 1.661,1.107 0.844,0 1.18,-0.357 1.376,-0.677 C 0.59,1.77 0.59,1.682 0.59,1.631 c 0,-0.189 -0.16,-0.32 -0.357,-0.32 -0.203,0 -0.269,0.138 -0.349,0.306 -0.073,0.145 -0.27,0.517 -0.845,0.517 -0.772,0 -1.07,-0.663 -1.07,-1.369 0,-0.627 0.189,-1.427 1.07,-1.427 0.663,0 0.852,0.429 0.961,0.662"
           id="path3429"
           style="fill:#024d36;fill-opacity:1;fill-rule:nonzero;stroke:none" /></g><g
         transform="translate(436.4619,328.0492)"
         id="g3431"><path
           d="m 0,0 c -0.029,0.48 -0.291,1.012 -0.983,1.012 -0.153,0 -0.451,-0.014 -0.706,-0.24 C -1.98,0.517 -2.046,0.167 -2.082,0 L 0,0 z m -2.09,-0.546 c 0.015,-0.328 0.088,-0.62 0.284,-0.86 0.248,-0.305 0.547,-0.357 0.838,-0.357 0.575,0 0.779,0.299 0.91,0.503 0.117,0.197 0.153,0.269 0.313,0.269 0.161,0 0.379,-0.094 0.379,-0.306 0,-0.029 0,-0.05 -0.007,-0.072 -0.03,-0.139 -0.153,-0.299 -0.233,-0.386 -0.503,-0.568 -1.158,-0.568 -1.362,-0.568 -0.474,0 -0.954,0.094 -1.326,0.509 -0.328,0.372 -0.48,0.896 -0.48,1.42 0,0.918 0.495,1.989 1.784,1.989 0.16,0 0.32,-0.015 0.473,-0.051 0.328,-0.081 0.612,-0.241 0.838,-0.546 0.24,-0.336 0.364,-0.809 0.364,-1.217 0,-0.306 -0.233,-0.327 -0.328,-0.327 l -2.447,0 z"
           id="path3433"
           style="fill:#024d36;fill-opacity:1;fill-rule:nonzero;stroke:none" /></g><g
         transform="translate(396.6551,320.9594)"
         id="g3435"><path
           d="m 0,0 0,-1.18 0.561,0 c 0.167,0 0.349,0 0.517,0.088 0.226,0.123 0.291,0.327 0.291,0.495 0,0.16 -0.058,0.32 -0.19,0.437 C 1.005,-0.008 0.772,0 0.524,0 L 0,0 z m -1.464,0.262 c 0,0.226 0.007,0.532 0.277,0.721 0.175,0.124 0.386,0.124 0.575,0.124 l 1.376,0 C 1.136,1.092 1.536,1.085 1.908,0.903 2.389,0.67 2.767,0.167 2.767,-0.568 c 0,-0.473 -0.16,-0.918 -0.4,-1.195 C 1.93,-2.272 1.282,-2.279 0.772,-2.287 l -0.779,0 0,-1.019 c 0,-0.088 -0.008,-0.175 -0.03,-0.262 -0.029,-0.117 -0.189,-0.539 -0.699,-0.539 -0.131,0 -0.356,0.036 -0.538,0.247 -0.168,0.204 -0.183,0.386 -0.19,0.583 l 0,3.539 z"
           id="path3437"
           style="fill:#024d36;fill-opacity:1;fill-rule:nonzero;stroke:none" /></g><g
         transform="translate(401.4176,320.0563)"
         id="g3439"><path
           d="m 0,0 c 0.139,0.415 0.554,0.684 0.983,0.684 0.08,0 0.401,0 0.401,-0.327 C 1.384,0.102 1.18,0.058 1.078,0.044 0.896,0.015 0.706,-0.015 0.51,-0.138 0.03,-0.473 0.03,-0.983 0.03,-1.42 l 0,-1.449 c 0,-0.116 -0.022,-0.306 -0.336,-0.306 -0.298,0 -0.327,0.204 -0.327,0.306 l 0,3.247 c 0,0.088 0.029,0.306 0.32,0.306 C -0.029,0.684 0,0.466 0,0.378 L 0,0 z"
           id="path3441"
           style="fill:#024d36;fill-opacity:1;fill-rule:nonzero;stroke:none" /></g><g
         transform="translate(406.5539,317.7842)"
         id="g3443"><path
           d="m 0,0 c 0.255,0.328 0.269,0.794 0.269,1.02 0,0.706 -0.233,1.412 -1.121,1.412 -0.197,0 -0.583,-0.029 -0.86,-0.415 -0.189,-0.277 -0.247,-0.662 -0.247,-1.005 0,-0.371 0.065,-0.772 0.269,-1.034 0.146,-0.182 0.43,-0.371 0.845,-0.371 0.328,0 0.648,0.131 0.845,0.393 m 0.48,-0.4 c -0.444,-0.488 -0.99,-0.532 -1.34,-0.532 -0.378,0 -0.903,0.051 -1.318,0.51 -0.451,0.495 -0.466,1.165 -0.466,1.434 0,0.35 0.037,0.962 0.452,1.435 0.451,0.503 1.056,0.546 1.369,0.546 1.07,0 1.784,-0.684 1.784,-1.93 C 0.961,0.736 0.924,0.095 0.48,-0.4"
           id="path3445"
           style="fill:#024d36;fill-opacity:1;fill-rule:nonzero;stroke:none" /></g><g
         transform="translate(410.5884,320.1944)"
         id="g3447"><path
           d="M 0,0 C -0.24,0 -0.561,-0.073 -0.786,-0.393 -0.961,-0.648 -1.02,-0.99 -1.02,-1.289 c 0,-0.328 0.059,-0.684 0.234,-0.917 0.145,-0.204 0.4,-0.357 0.728,-0.357 0.335,0 0.641,0.167 0.801,0.4 0.196,0.284 0.211,0.758 0.211,0.925 C 0.954,-1.048 0.954,0 0,0 m 1.566,-2.774 c 0,-0.794 -0.095,-1.18 -0.387,-1.45 -0.254,-0.232 -0.691,-0.356 -1.193,-0.356 -0.423,0 -0.809,0.087 -1.064,0.276 -0.255,0.183 -0.429,0.496 -0.429,0.692 0,0.226 0.196,0.321 0.349,0.321 0.219,0 0.291,-0.153 0.35,-0.277 0.065,-0.131 0.094,-0.189 0.145,-0.248 0.161,-0.182 0.525,-0.204 0.692,-0.204 0.867,0 0.896,0.554 0.91,1.057 l 0.008,0.334 c -0.168,-0.196 -0.437,-0.509 -1.1,-0.509 -1.092,0 -1.551,0.837 -1.551,1.798 0,0.255 0.029,0.503 0.095,0.75 0.211,0.721 0.742,1.166 1.536,1.166 0.27,0 0.459,-0.051 0.597,-0.11 0.277,-0.123 0.372,-0.262 0.452,-0.393 0.007,0.24 0.007,0.277 0.036,0.335 0.029,0.051 0.102,0.131 0.255,0.131 0.277,0 0.299,-0.196 0.299,-0.277 l 0,-3.036 z"
           id="path3449"
           style="fill:#024d36;fill-opacity:1;fill-rule:nonzero;stroke:none" /></g><g
         transform="translate(414.6668,320.0563)"
         id="g3451"><path
           d="m 0,0 c 0.139,0.415 0.554,0.684 0.983,0.684 0.08,0 0.401,0 0.401,-0.327 C 1.384,0.102 1.18,0.058 1.078,0.044 0.896,0.015 0.706,-0.015 0.51,-0.138 0.029,-0.473 0.029,-0.983 0.029,-1.42 l 0,-1.449 c 0,-0.116 -0.021,-0.306 -0.335,-0.306 -0.298,0 -0.327,0.204 -0.327,0.306 l 0,3.247 c 0,0.088 0.029,0.306 0.32,0.306 C -0.029,0.684 0,0.466 0,0.378 L 0,0 z"
           id="path3453"
           style="fill:#024d36;fill-opacity:1;fill-rule:nonzero;stroke:none" /></g><g
         transform="translate(418.7106,318.6508)"
         id="g3455"><path
           d="m 0,0 c -0.124,-0.022 -0.27,-0.058 -0.372,-0.095 -0.109,-0.036 -0.437,-0.145 -0.437,-0.553 0,-0.4 0.313,-0.605 0.678,-0.605 0.415,0 0.692,0.241 0.801,0.386 0.189,0.263 0.197,0.605 0.203,1.093 C 0.735,0.167 0.684,0.153 0.378,0.088 L 0,0 z M 1.493,-1.478 C 1.485,-1.558 1.471,-1.769 1.201,-1.769 1.078,-1.762 0.968,-1.719 0.924,-1.609 0.902,-1.551 0.895,-1.522 0.895,-1.26 0.539,-1.719 0.044,-1.799 -0.277,-1.799 c -0.757,0 -1.223,0.466 -1.223,1.158 0,0.867 0.713,1.005 1.106,1.085 l 0.62,0.132 C 0.473,0.626 0.604,0.656 0.67,0.677 0.823,0.721 0.873,0.779 0.873,0.961 0.873,1.58 0.247,1.58 0.116,1.58 -0.517,1.58 -0.627,1.267 -0.692,1.071 -0.714,0.968 -0.75,0.838 -0.998,0.838 c -0.269,0 -0.342,0.152 -0.342,0.284 0,0.145 0.095,0.327 0.152,0.422 0.292,0.444 0.802,0.575 1.304,0.575 0.423,0 0.86,-0.08 1.129,-0.393 0.248,-0.292 0.248,-0.663 0.248,-1.02 l 0,-2.184 z"
           id="path3457"
           style="fill:#024d36;fill-opacity:1;fill-rule:nonzero;stroke:none" /></g><g
         transform="translate(422.0895,320.4278)"
         id="g3459"><path
           d="m 0,0 c 0,0.102 0.022,0.211 0.16,0.277 0.08,0.043 0.248,0.058 0.35,0 C 0.662,0.204 0.662,0.087 0.662,-0.16 0.947,0.189 1.267,0.35 1.726,0.35 1.944,0.35 2.163,0.313 2.352,0.204 2.614,0.066 2.716,-0.138 2.767,-0.24 3.051,0.102 3.394,0.35 3.947,0.35 4.311,0.35 4.683,0.284 4.952,-0.037 5.2,-0.335 5.214,-0.67 5.214,-1.034 l 0,-2.178 c 0,-0.094 -0.029,-0.334 -0.342,-0.334 -0.058,0 -0.116,0.014 -0.167,0.043 -0.146,0.066 -0.168,0.182 -0.168,0.291 l 0,1.632 c 0,0.218 -0.007,0.422 -0.007,0.539 0,0.24 -0.022,0.801 -0.685,0.801 -0.393,0 -0.626,-0.212 -0.743,-0.386 -0.16,-0.241 -0.16,-0.481 -0.16,-0.787 l 0,-1.806 c 0,-0.102 -0.022,-0.218 -0.16,-0.284 -0.066,-0.036 -0.138,-0.043 -0.175,-0.043 -0.058,0 -0.117,0.014 -0.175,0.043 -0.138,0.066 -0.16,0.182 -0.16,0.284 l 0,1.843 c 0,0.342 0,0.407 -0.015,0.516 -0.014,0.125 -0.072,0.62 -0.662,0.62 -0.299,0 -0.568,-0.11 -0.743,-0.386 C 0.684,-0.889 0.677,-1.158 0.677,-1.551 l 0,-1.668 C 0.677,-3.27 0.662,-3.328 0.641,-3.379 0.612,-3.445 0.517,-3.546 0.342,-3.546 0.029,-3.546 0,-3.306 0,-3.219 L 0,0 z"
           id="path3461"
           style="fill:#024d36;fill-opacity:1;fill-rule:nonzero;stroke:none" /></g><g
         transform="translate(381.4482,339.0619)"
         id="g3463"><path
           d="m 0,0 0,-3.874 3.002,0 c 1.304,0.011 2.202,0.756 2.208,1.935 -0.015,1.383 -0.904,1.912 -2.564,1.938 L 0,0 z m -6.068,-12.676 c -0.793,-0.01 -1.454,0.315 -1.727,1.069 l -0.833,2.377 -5.24,0 -0.85,-2.375 c -0.238,-0.73 -0.831,-1.071 -1.653,-1.071 -0.018,0 -0.036,0 -0.054,0 -0.509,0 -0.958,0.16 -1.277,0.46 -0.322,0.298 -0.504,0.733 -0.503,1.237 0.004,0.437 0.22,1.038 0.347,1.383 l 4.426,11.714 0.18,-0.068 -0.18,0.069 c 0.306,0.844 0.981,1.183 1.851,1.168 l 0.814,0 c 0.796,0.018 1.633,-0.239 2.019,-1.381 l 4.134,-11.502 c 0.127,-0.345 0.342,-0.946 0.346,-1.383 -0.003,-0.954 -0.827,-1.695 -1.8,-1.697 m -12.533,2.323 c 0,-0.703 -0.15,-1.289 -0.522,-1.703 -0.372,-0.415 -0.944,-0.621 -1.696,-0.62 -0.033,0 -0.066,-10e-4 -0.099,-10e-4 -1.034,0 -1.518,0.308 -1.943,1.01 l -5.637,8.901 0,-8.067 c 0,-0.588 -0.17,-1.061 -0.5,-1.379 -0.33,-0.318 -0.799,-0.465 -1.342,-0.464 -0.544,-10e-4 -1.012,0.146 -1.342,0.464 -0.331,0.318 -0.501,0.791 -0.501,1.379 l 0,11.922 c 0,0.737 0.181,1.305 0.591,1.678 0.409,0.371 0.999,0.52 1.753,0.52 0.757,0.003 1.466,-0.3 1.876,-0.989 l 5.678,-9.16 0,8.306 c -0.001,0.588 0.169,1.061 0.5,1.379 0.33,0.318 0.798,0.465 1.342,0.464 0.544,10e-4 1.012,-0.146 1.342,-0.464 0.332,-0.318 0.501,-0.791 0.5,-1.379 l 0,-11.797 z m 27.453,9.856 1.879,10.678 c -0.152,0.029 -0.307,0.041 -0.463,0.041 -0.725,0 -1.47,-0.274 -2.046,-0.547 C 7.648,9.401 7.242,9.127 7.199,9.127 c -0.002,0 -0.004,10e-4 -0.004,0.002 0,-10e-4 0,-10e-4 0,-10e-4 -0.022,0 -1.234,1.938 -2.952,2.256 -0.142,0.026 -0.286,0.038 -0.431,0.038 -1.525,0 -3.157,-1.325 -3.124,-1.331 -0.036,0.006 -1.09,2.058 -2.851,2.475 l 10e-4,0.005 c -0.014,0.002 -0.029,0.003 -0.044,0.006 -0.014,0.003 -0.027,0.007 -0.043,0.009 L -2.25,12.583 c -0.13,0.017 -0.26,0.025 -0.389,0.025 -0.821,0 -1.6,-0.329 -2.18,-0.658 -0.579,-0.328 -0.958,-0.657 -0.977,-0.657 0.03,0 -1.229,2.179 -2.857,2.481 -0.178,0.033 -0.357,0.047 -0.536,0.047 -0.768,0 -1.518,-0.274 -2.079,-0.547 -0.562,-0.275 -0.935,-0.549 -0.949,-0.549 -10e-4,0 0,0.001 0,0.002 0,-10e-4 -10e-4,-10e-4 -0.002,-10e-4 -0.065,0 -1.324,1.935 -2.926,2.231 -0.149,0.028 -0.299,0.04 -0.449,0.04 -0.707,0 -1.403,-0.279 -1.932,-0.558 -0.528,-0.279 -0.889,-0.558 -0.926,-0.558 -0.002,0 -0.002,10e-4 -0.003,10e-4 10e-4,0 10e-4,-10e-4 0,-10e-4 -0.022,0 -1.235,1.938 -2.953,2.256 -0.141,0.026 -0.285,0.038 -0.43,0.038 -1.525,0 -3.156,-1.324 -3.124,-1.33 -0.035,0.006 -1.09,2.058 -2.851,2.474 l 10e-4,0.005 c -0.015,0.002 -0.029,0.003 -0.043,0.006 -0.015,0.003 -0.029,0.007 -0.043,0.01 l -0.001,-0.004 c -0.131,0.017 -0.261,0.026 -0.391,0.026 -0.82,0 -1.599,-0.329 -2.179,-0.658 -0.579,-0.329 -0.959,-0.658 -0.978,-0.658 0.032,0.001 -1.228,2.179 -2.856,2.481 -0.178,0.033 -0.358,0.048 -0.537,0.048 -0.767,0 -1.518,-0.274 -2.079,-0.548 -0.562,-0.274 -0.935,-0.549 -0.948,-0.549 -0.001,0 -0.001,10e-4 0,0.002 -0.001,-0.001 -0.001,-0.001 -0.003,-0.001 -0.068,0 -1.343,1.958 -2.921,2.25 L -43.904,2.045 c 0.113,0.087 0.228,0.173 0.349,0.251 1.18,0.758 2.71,1.073 4.189,1.075 2.725,-0.018 5.97,-1.482 6.018,-3.701 -10e-4,-0.985 -0.855,-1.549 -1.758,-1.55 -0.908,0.003 -1.284,0.651 -1.783,1.177 -0.51,0.536 -1.153,1.049 -2.707,1.057 -1.538,-0.016 -2.265,-0.669 -2.27,-1.583 0.003,-0.435 0.243,-0.707 0.661,-0.942 0.415,-0.228 0.988,-0.373 1.527,-0.497 l 2.86,-0.648 c 3.204,-0.71 4.093,-2.698 4.076,-4.51 0.002,-1.405 -0.536,-2.655 -1.61,-3.537 -1.074,-0.882 -2.666,-1.396 -4.763,-1.397 -4.4,0.005 -6.469,2.208 -6.478,3.994 0.001,0.934 0.705,1.611 1.633,1.613 1.051,-0.003 1.449,-0.785 1.97,-1.429 0.537,-0.656 1.192,-1.277 2.875,-1.286 1.708,0.007 2.56,0.925 2.563,1.791 -0.015,0.541 -0.211,1.087 -1.317,1.378 l -3.862,0.982 c -1.678,0.417 -2.65,1.133 -3.195,1.958 L -47.134,-16.3 c -0.379,-2.051 -0.073,-3.792 2.725,-4.346 l 44.484,-8.125 c 0.238,-0.045 0.473,-0.066 0.706,-0.066 1.733,0 3.274,1.181 3.608,2.989 L 8.07,-4.942 C 7.925,-5.133 7.77,-5.317 7.595,-5.484 6.664,-6.372 5.306,-6.892 3.607,-6.892 l -3.607,0 0,-3.878 c 0.001,-0.553 -0.183,-1.036 -0.521,-1.376 -0.336,-0.34 -0.818,-0.53 -1.38,-0.53 l -0.004,0 c -0.564,-10e-4 -1.048,0.189 -1.384,0.53 -0.339,0.34 -0.522,0.823 -0.521,1.376 l 0,11.588 c -0.002,0.793 0.21,1.361 0.612,1.718 0.404,0.356 0.956,0.479 1.585,0.479 l 5.241,0 C 5.1,3.015 6.444,2.654 7.43,1.844 8.116,1.282 8.61,0.499 8.852,-0.497 m -21.836,-5.966 3.476,0 -1.701,5.286 -1.775,-5.286 z"
           id="path3465"
           style="fill:#024d36;fill-opacity:1;fill-rule:nonzero;stroke:none" /></g><g
         transform="translate(370.3429,360.4722)"
         id="g3467"><path
           d="M 0,0 C -0.495,0.645 -1.539,1.385 -2.799,1.388 -4.541,1.391 -4.875,0.609 -4.9,0.639 c 0.414,1.051 0.993,2.633 0.799,3.142 -0.273,0.72 -1.128,0.06 -1.128,0.06 0,0 0.199,-1.229 -0.115,-3.037 -0.129,0.097 -0.324,0.193 -0.647,0.28 -3.518,0.954 -7.299,-0.701 -8.894,-4.086 0.467,-0.285 0.963,-0.677 1.458,-1.229 0.945,0.483 1.852,0.727 2.7,0.727 0.255,0 0.506,-0.023 0.747,-0.067 1.066,-0.198 2.096,-0.789 3.029,-1.732 0.856,0.412 1.686,0.621 2.468,0.621 0.261,0 0.518,-0.024 0.766,-0.069 1.23,-0.228 2.224,-0.973 2.985,-1.743 0.092,0.043 0.182,0.073 0.273,0.111 0,0.008 0.001,0.016 0.001,0.024 -0.021,1.876 -0.787,3.69 -2.037,5.177 C -1.325,-1.137 -0.49,-0.67 0,0"
           id="path3469"
           style="fill:#c02123;fill-opacity:1;fill-rule:nonzero;stroke:none" /></g><g
         transform="translate(389.9049,361.9726)"
         id="g3471"><path
           d="m 0,0 -9.332,3.829 -0.23,0.097 c 0.463,1.13 0.914,1.315 2.66,1.707 l 3.646,0.776 2.389,-3.281 C 0.257,1.445 0.464,1.13 0,0 m -10.296,-8.635 0.015,-0.003 0.02,-0.005 c -0.011,0.003 -0.023,0.005 -0.035,0.008 M 5.763,3.213 3.299,6.825 C 3.434,7.17 3.6,7.581 3.747,7.911 4.072,8.631 3.192,8.707 3.192,8.707 l -4.716,0.331 c 0,0 -0.746,0.087 -1.07,-0.756 C -2.679,8.061 -2.777,7.81 -2.879,7.548 L -6.981,6.612 C -9.211,6.231 -9.787,5.876 -10.39,4.406 l -5.061,-12.334 c 0.566,-0.318 1.115,-0.766 1.641,-1.349 0.925,0.473 1.837,0.712 2.718,0.712 0.209,0 0.418,-0.014 0.621,-0.041 l 0.038,-10e-4 0.038,-0.007 c 0.046,-0.008 0.092,-0.018 0.138,-0.03 l 10e-4,0 0.04,-0.01 c 0.774,-0.183 1.825,-0.656 2.875,-1.824 0.944,0.483 1.852,0.727 2.7,0.727 0.106,0 0.211,-0.006 0.315,-0.014 l 2.77,5.769 -1.844,-5.946 c 0.908,-0.275 1.78,-0.832 2.58,-1.652 0.94,0.426 1.825,0.643 2.635,0.643 0.266,0 0.528,-0.024 0.779,-0.07 l 0.118,-0.022 4.179,10.187 c 0.604,1.471 0.335,1.88 -1.128,4.069"
           id="path3473"
           style="fill:#00adef;fill-opacity:1;fill-rule:nonzero;stroke:none" /></g><g
         transform="translate(334.6863,356.6344)"
         id="g3475"><path
           d="m 0,0 c 0.135,-0.083 0.333,-0.153 0.542,-0.153 0.309,0 0.49,0.164 0.49,0.4 0,0.219 -0.126,0.344 -0.442,0.465 -0.382,0.136 -0.618,0.334 -0.618,0.664 0,0.364 0.303,0.635 0.757,0.635 0.24,0 0.414,-0.055 0.518,-0.114 L 1.164,1.65 C 1.087,1.692 0.931,1.761 0.719,1.761 0.399,1.761 0.278,1.57 0.278,1.41 0.278,1.191 0.42,1.084 0.743,0.959 1.139,0.806 1.341,0.615 1.341,0.271 c 0,-0.361 -0.268,-0.677 -0.82,-0.677 -0.226,0 -0.472,0.069 -0.597,0.152 L 0,0 z"
           id="path3477"
           style="fill:#024d36;fill-opacity:1;fill-rule:nonzero;stroke:none" /></g><g
         transform="translate(338.4128,357.2946)"
         id="g3479"><path
           d="m 0,0 c -0.017,0.326 -0.038,0.719 -0.035,1.011 l -0.01,0 C -0.125,0.736 -0.222,0.441 -0.34,0.121 l -0.414,-1.135 -0.229,0 -0.379,1.115 c -0.111,0.33 -0.205,0.632 -0.271,0.91 l -0.007,0 C -1.647,0.719 -1.664,0.326 -1.685,-0.025 l -0.062,-1.003 -0.289,0 0.164,2.341 0.385,0 0.4,-1.133 c 0.097,-0.288 0.177,-0.545 0.236,-0.788 l 0.01,0 c 0.059,0.236 0.143,0.493 0.247,0.788 l 0.417,1.133 0.385,0 0.146,-2.341 -0.295,0 L 0,0 z"
           id="path3481"
           style="fill:#024d36;fill-opacity:1;fill-rule:nonzero;stroke:none" /></g></g></g></svg>